<svg width="1080" height="1080" viewBox="0 0 1080 1080" fill="none" xmlns="http://www.w3.org/2000/svg">
<g clip-path="url(#clip0_46_2390)">
<rect width="1080" height="1080" fill="#111111"/>
<g clip-path="url(#clip1_46_2390)">
<rect width="256" height="256" transform="translate(-100 -100)" fill="#4CAF50"/>
<path opacity="0.5" fill-rule="evenodd" clip-rule="evenodd" d="M145.76 143.2H156V145.76H145.76V156H143.2V145.76H120.16V156H117.6V145.76H94.56V156H92V145.76H68.96V156H66.4V145.76H43.36V156H40.8V145.76H17.76V156H15.2V145.76H-7.84V156H-10.4V145.76H-33.44V156H-36V145.76H-59.04V156H-61.6V145.76H-100V143.2H-61.6V120.16H-100V117.6H-61.6V94.56H-100V92H-61.6V68.96H-100V66.4H-61.6V43.36H-100V40.8H-61.6V17.76H-100V15.2H-61.6V-7.84H-100V-10.4H-61.6V-33.44H-100V-36H-61.6V-59.04H-100V-61.6H-61.6V-100H-59.04V-61.6H-36V-100H-33.44V-61.6H-10.4V-100H-7.84V-61.6H15.2V-100H17.76V-61.6H40.8V-100H43.36V-61.6H66.4V-100H68.96V-61.6H92V-100H94.56V-61.6H117.6V-100H120.16V-61.6H143.2V-100H145.76V-61.6H156V-59.04H145.76V-36H156V-33.44H145.76V-10.4H156V-7.84H145.76V15.2H156V17.76H145.76V40.8H156V43.36H145.76V66.4H156V68.96H145.76V92H156V94.56H145.76V117.6H156V120.16H145.76V143.2ZM143.2 143.2V120.16H120.16V143.2H143.2ZM117.6 143.2V120.16H94.56V143.2H117.6ZM92 143.2V120.16H68.96V143.2H92ZM66.4 143.2V120.16H43.36V143.2H66.4ZM40.8 143.2V120.16H17.76V143.2H40.8ZM15.2 143.2V120.16H-7.84V143.2H15.2ZM-10.4 143.2V120.16H-33.44V143.2H-10.4ZM-36 143.2V120.16H-59.04V143.2H-36ZM-59.04 117.6H-36V94.56H-59.04V117.6ZM-33.44 117.6H-10.4V94.56H-33.44V117.6ZM-7.84 117.6H15.2V94.56H-7.84V117.6ZM17.76 117.6H40.8V94.56H17.76V117.6ZM43.36 117.6H66.4V94.56H43.36V117.6ZM68.96 117.6H92V94.56H68.96V117.6ZM94.56 117.6H117.6V94.56H94.56V117.6ZM120.16 117.6H143.2V94.56H120.16V117.6ZM143.2 92V68.96H120.16V92H143.2ZM117.6 92V68.96H94.56V92H117.6ZM92 92V68.96H68.96V92H92ZM66.4 92V68.96H43.36V92H66.4ZM40.8 92V68.96H17.76V92H40.8ZM15.2 92V68.96H-7.84V92H15.2ZM-10.4 92V68.96H-33.44V92H-10.4ZM-36 92V68.96H-59.04V92H-36ZM-59.04 66.4H-36V43.36H-59.04V66.4ZM-33.44 66.4H-10.4V43.36H-33.44V66.4ZM-7.84 66.4H15.2V43.36H-7.84V66.4ZM17.76 66.4H40.8V43.36H17.76V66.4ZM43.36 66.4H66.4V43.36H43.36V66.4ZM68.96 66.4H92V43.36H68.96V66.4ZM94.56 66.4H117.6V43.36H94.56V66.4ZM120.16 66.4H143.2V43.36H120.16V66.4ZM143.2 40.8V17.76H120.16V40.8H143.2ZM117.6 40.8V17.76H94.56V40.8H117.6ZM92 40.8V17.76H68.96V40.8H92ZM66.4 40.8V17.76H43.36V40.8H66.4ZM40.8 40.8V17.76H17.76V40.8H40.8ZM15.2 40.8V17.76H-7.84V40.8H15.2ZM-10.4 40.8V17.76H-33.44V40.8H-10.4ZM-36 40.8V17.76H-59.04V40.8H-36ZM-59.04 15.2H-36V-7.84H-59.04V15.2ZM-33.44 15.2H-10.4V-7.84H-33.44V15.2ZM-7.84 15.2H15.2V-7.84H-7.84V15.2ZM17.76 15.2H40.8V-7.84H17.76V15.2ZM43.36 15.2H66.4V-7.84H43.36V15.2ZM68.96 15.2H92V-7.84H68.96V15.2ZM94.56 15.2H117.6V-7.84H94.56V15.2ZM120.16 15.2H143.2V-7.84H120.16V15.2ZM143.2 -10.4V-33.44H120.16V-10.4H143.2ZM117.6 -10.4V-33.44H94.56V-10.4H117.6ZM92 -10.4V-33.44H68.96V-10.4H92ZM66.4 -10.4V-33.44H43.36V-10.4H66.4ZM40.8 -10.4V-33.44H17.76V-10.4H40.8ZM15.2 -10.4V-33.44H-7.84V-10.4H15.2ZM-10.4 -10.4V-33.44H-33.44V-10.4H-10.4ZM-36 -10.4V-33.44H-59.04V-10.4H-36ZM-59.04 -36H-36V-59.04H-59.04V-36ZM-33.44 -36H-10.4V-59.04H-33.44V-36ZM-7.84 -36H15.2V-59.04H-7.84V-36ZM17.76 -36H40.8V-59.04H17.76V-36ZM43.36 -36H66.4V-59.04H43.36V-36ZM68.96 -36H92V-59.04H68.96V-36ZM94.56 -36H117.6V-59.04H94.56V-36ZM120.16 -36H143.2V-59.04H120.16V-36Z" fill="#EAF0F7" fill-opacity="0.4"/>
<path fill-rule="evenodd" clip-rule="evenodd" d="M-84.64 -87.2V-100H-87.2V-87.2H-100V-84.64H-87.2V156H-84.64V-84.64H156V-87.2H-84.64Z" fill="#EAF0F7" fill-opacity="0.4"/>
</g>
<g clip-path="url(#clip2_46_2390)">
<rect width="256" height="256" transform="translate(156 -100)" fill="#4CAF50"/>
<path opacity="0.5" fill-rule="evenodd" clip-rule="evenodd" d="M401.76 143.2H412V145.76H401.76V156H399.2V145.76H376.16V156H373.6V145.76H350.56V156H348V145.76H324.96V156H322.4V145.76H299.36V156H296.8V145.76H273.76V156H271.2V145.76H248.16V156H245.6V145.76H222.56V156H220V145.76H196.96V156H194.4V145.76H156V143.2H194.4V120.16H156V117.6H194.4V94.56H156V92H194.4V68.96H156V66.4H194.4V43.36H156V40.8H194.4V17.76H156V15.2H194.4V-7.84H156V-10.4H194.4V-33.44H156V-36H194.4V-59.04H156V-61.6H194.4V-100H196.96V-61.6H220V-100H222.56V-61.6H245.6V-100H248.16V-61.6H271.2V-100H273.76V-61.6H296.8V-100H299.36V-61.6H322.4V-100H324.96V-61.6H348V-100H350.56V-61.6H373.6V-100H376.16V-61.6H399.2V-100H401.76V-61.6H412V-59.04H401.76V-36H412V-33.44H401.76V-10.4H412V-7.84H401.76V15.2H412V17.76H401.76V40.8H412V43.36H401.76V66.4H412V68.96H401.76V92H412V94.56H401.76V117.6H412V120.16H401.76V143.2ZM399.2 143.2V120.16H376.16V143.2H399.2ZM373.6 143.2V120.16H350.56V143.2H373.6ZM348 143.2V120.16H324.96V143.2H348ZM322.4 143.2V120.16H299.36V143.2H322.4ZM296.8 143.2V120.16H273.76V143.2H296.8ZM271.2 143.2V120.16H248.16V143.2H271.2ZM245.6 143.2V120.16H222.56V143.2H245.6ZM220 143.2V120.16H196.96V143.2H220ZM196.96 117.6H220V94.56H196.96V117.6ZM222.56 117.6H245.6V94.56H222.56V117.6ZM248.16 117.6H271.2V94.56H248.16V117.6ZM273.76 117.6H296.8V94.56H273.76V117.6ZM299.36 117.6H322.4V94.56H299.36V117.6ZM324.96 117.6H348V94.56H324.96V117.6ZM350.56 117.6H373.6V94.56H350.56V117.6ZM376.16 117.6H399.2V94.56H376.16V117.6ZM399.2 92V68.96H376.16V92H399.2ZM373.6 92V68.96H350.56V92H373.6ZM348 92V68.96H324.96V92H348ZM322.4 92V68.96H299.36V92H322.4ZM296.8 92V68.96H273.76V92H296.8ZM271.2 92V68.96H248.16V92H271.2ZM245.6 92V68.96H222.56V92H245.6ZM220 92V68.96H196.96V92H220ZM196.96 66.4H220V43.36H196.96V66.4ZM222.56 66.4H245.6V43.36H222.56V66.4ZM248.16 66.4H271.2V43.36H248.16V66.4ZM273.76 66.4H296.8V43.36H273.76V66.4ZM299.36 66.4H322.4V43.36H299.36V66.4ZM324.96 66.4H348V43.36H324.96V66.4ZM350.56 66.4H373.6V43.36H350.56V66.4ZM376.16 66.4H399.2V43.36H376.16V66.4ZM399.2 40.8V17.76H376.16V40.8H399.2ZM373.6 40.8V17.76H350.56V40.8H373.6ZM348 40.8V17.76H324.96V40.8H348ZM322.4 40.8V17.76H299.36V40.8H322.4ZM296.8 40.8V17.76H273.76V40.8H296.8ZM271.2 40.8V17.76H248.16V40.8H271.2ZM245.6 40.8V17.76H222.56V40.8H245.6ZM220 40.8V17.76H196.96V40.8H220ZM196.96 15.2H220V-7.84H196.96V15.2ZM222.56 15.2H245.6V-7.84H222.56V15.2ZM248.16 15.2H271.2V-7.84H248.16V15.2ZM273.76 15.2H296.8V-7.84H273.76V15.2ZM299.36 15.2H322.4V-7.84H299.36V15.2ZM324.96 15.2H348V-7.84H324.96V15.2ZM350.56 15.2H373.6V-7.84H350.56V15.2ZM376.16 15.2H399.2V-7.84H376.16V15.2ZM399.2 -10.4V-33.44H376.16V-10.4H399.2ZM373.6 -10.4V-33.44H350.56V-10.4H373.6ZM348 -10.4V-33.44H324.96V-10.4H348ZM322.4 -10.4V-33.44H299.36V-10.4H322.4ZM296.8 -10.4V-33.44H273.76V-10.4H296.8ZM271.2 -10.4V-33.44H248.16V-10.4H271.2ZM245.6 -10.4V-33.44H222.56V-10.4H245.6ZM220 -10.4V-33.44H196.96V-10.4H220ZM196.96 -36H220V-59.04H196.96V-36ZM222.56 -36H245.6V-59.04H222.56V-36ZM248.16 -36H271.2V-59.04H248.16V-36ZM273.76 -36H296.8V-59.04H273.76V-36ZM299.36 -36H322.4V-59.04H299.36V-36ZM324.96 -36H348V-59.04H324.96V-36ZM350.56 -36H373.6V-59.04H350.56V-36ZM376.16 -36H399.2V-59.04H376.16V-36Z" fill="#EAF0F7" fill-opacity="0.4"/>
<path fill-rule="evenodd" clip-rule="evenodd" d="M171.36 -87.2V-100H168.8V-87.2H156V-84.64H168.8V156H171.36V-84.64H412V-87.2H171.36Z" fill="#EAF0F7" fill-opacity="0.4"/>
</g>
<g clip-path="url(#clip3_46_2390)">
<rect width="256" height="256" transform="translate(412 -100)" fill="#4CAF50"/>
<path opacity="0.5" fill-rule="evenodd" clip-rule="evenodd" d="M657.76 143.2H668V145.76H657.76V156H655.2V145.76H632.16V156H629.6V145.76H606.56V156H604V145.76H580.96V156H578.4V145.76H555.36V156H552.8V145.76H529.76V156H527.2V145.76H504.16V156H501.6V145.76H478.56V156H476V145.76H452.96V156H450.4V145.76H412V143.2H450.4V120.16H412V117.6H450.4V94.56H412V92H450.4V68.96H412V66.4H450.4V43.36H412V40.8H450.4V17.76H412V15.2H450.4V-7.84H412V-10.4H450.4V-33.44H412V-36H450.4V-59.04H412V-61.6H450.4V-100H452.96V-61.6H476V-100H478.56V-61.6H501.6V-100H504.16V-61.6H527.2V-100H529.76V-61.6H552.8V-100H555.36V-61.6H578.4V-100H580.96V-61.6H604V-100H606.56V-61.6H629.6V-100H632.16V-61.6H655.2V-100H657.76V-61.6H668V-59.04H657.76V-36H668V-33.44H657.76V-10.4H668V-7.84H657.76V15.2H668V17.76H657.76V40.8H668V43.36H657.76V66.4H668V68.96H657.76V92H668V94.56H657.76V117.6H668V120.16H657.76V143.2ZM655.2 143.2V120.16H632.16V143.2H655.2ZM629.6 143.2V120.16H606.56V143.2H629.6ZM604 143.2V120.16H580.96V143.2H604ZM578.4 143.2V120.16H555.36V143.2H578.4ZM552.8 143.2V120.16H529.76V143.2H552.8ZM527.2 143.2V120.16H504.16V143.2H527.2ZM501.6 143.2V120.16H478.56V143.2H501.6ZM476 143.2V120.16H452.96V143.2H476ZM452.96 117.6H476V94.56H452.96V117.6ZM478.56 117.6H501.6V94.56H478.56V117.6ZM504.16 117.6H527.2V94.56H504.16V117.6ZM529.76 117.6H552.8V94.56H529.76V117.6ZM555.36 117.6H578.4V94.56H555.36V117.6ZM580.96 117.6H604V94.56H580.96V117.6ZM606.56 117.6H629.6V94.56H606.56V117.6ZM632.16 117.6H655.2V94.56H632.16V117.6ZM655.2 92V68.96H632.16V92H655.2ZM629.6 92V68.96H606.56V92H629.6ZM604 92V68.96H580.96V92H604ZM578.4 92V68.96H555.36V92H578.4ZM552.8 92V68.96H529.76V92H552.8ZM527.2 92V68.96H504.16V92H527.2ZM501.6 92V68.96H478.56V92H501.6ZM476 92V68.96H452.96V92H476ZM452.96 66.4H476V43.36H452.96V66.4ZM478.56 66.4H501.6V43.36H478.56V66.4ZM504.16 66.4H527.2V43.36H504.16V66.4ZM529.76 66.4H552.8V43.36H529.76V66.4ZM555.36 66.4H578.4V43.36H555.36V66.4ZM580.96 66.4H604V43.36H580.96V66.4ZM606.56 66.4H629.6V43.36H606.56V66.4ZM632.16 66.4H655.2V43.36H632.16V66.4ZM655.2 40.8V17.76H632.16V40.8H655.2ZM629.6 40.8V17.76H606.56V40.8H629.6ZM604 40.8V17.76H580.96V40.8H604ZM578.4 40.8V17.76H555.36V40.8H578.4ZM552.8 40.8V17.76H529.76V40.8H552.8ZM527.2 40.8V17.76H504.16V40.8H527.2ZM501.6 40.8V17.76H478.56V40.8H501.6ZM476 40.8V17.76H452.96V40.8H476ZM452.96 15.2H476V-7.84H452.96V15.2ZM478.56 15.2H501.6V-7.84H478.56V15.2ZM504.16 15.2H527.2V-7.84H504.16V15.2ZM529.76 15.2H552.8V-7.84H529.76V15.2ZM555.36 15.2H578.4V-7.84H555.36V15.2ZM580.96 15.2H604V-7.84H580.96V15.2ZM606.56 15.2H629.6V-7.84H606.56V15.2ZM632.16 15.2H655.2V-7.84H632.16V15.2ZM655.2 -10.4V-33.44H632.16V-10.4H655.2ZM629.6 -10.4V-33.44H606.56V-10.4H629.6ZM604 -10.4V-33.44H580.96V-10.4H604ZM578.4 -10.4V-33.44H555.36V-10.4H578.4ZM552.8 -10.4V-33.44H529.76V-10.4H552.8ZM527.2 -10.4V-33.44H504.16V-10.4H527.2ZM501.6 -10.4V-33.44H478.56V-10.4H501.6ZM476 -10.4V-33.44H452.96V-10.4H476ZM452.96 -36H476V-59.04H452.96V-36ZM478.56 -36H501.6V-59.04H478.56V-36ZM504.16 -36H527.2V-59.04H504.16V-36ZM529.76 -36H552.8V-59.04H529.76V-36ZM555.36 -36H578.4V-59.04H555.36V-36ZM580.96 -36H604V-59.04H580.96V-36ZM606.56 -36H629.6V-59.04H606.56V-36ZM632.16 -36H655.2V-59.04H632.16V-36Z" fill="#EAF0F7" fill-opacity="0.4"/>
<path fill-rule="evenodd" clip-rule="evenodd" d="M427.36 -87.2V-100H424.8V-87.2H412V-84.64H424.8V156H427.36V-84.64H668V-87.2H427.36Z" fill="#EAF0F7" fill-opacity="0.4"/>
</g>
<g clip-path="url(#clip4_46_2390)">
<rect width="256" height="256" transform="translate(668 -100)" fill="#4CAF50"/>
<path opacity="0.5" fill-rule="evenodd" clip-rule="evenodd" d="M913.76 143.2H924V145.76H913.76V156H911.2V145.76H888.16V156H885.6V145.76H862.56V156H860V145.76H836.96V156H834.4V145.76H811.36V156H808.8V145.76H785.76V156H783.2V145.76H760.16V156H757.6V145.76H734.56V156H732V145.76H708.96V156H706.4V145.76H668V143.2H706.4V120.16H668V117.6H706.4V94.56H668V92H706.4V68.96H668V66.4H706.4V43.36H668V40.8H706.4V17.76H668V15.2H706.4V-7.84H668V-10.4H706.4V-33.44H668V-36H706.4V-59.04H668V-61.6H706.4V-100H708.96V-61.6H732V-100H734.56V-61.6H757.6V-100H760.16V-61.6H783.2V-100H785.76V-61.6H808.8V-100H811.36V-61.6H834.4V-100H836.96V-61.6H860V-100H862.56V-61.6H885.6V-100H888.16V-61.6H911.2V-100H913.76V-61.6H924V-59.04H913.76V-36H924V-33.44H913.76V-10.4H924V-7.84H913.76V15.2H924V17.76H913.76V40.8H924V43.36H913.76V66.4H924V68.96H913.76V92H924V94.56H913.76V117.6H924V120.16H913.76V143.2ZM911.2 143.2V120.16H888.16V143.2H911.2ZM885.6 143.2V120.16H862.56V143.2H885.6ZM860 143.2V120.16H836.96V143.2H860ZM834.4 143.2V120.16H811.36V143.2H834.4ZM808.8 143.2V120.16H785.76V143.2H808.8ZM783.2 143.2V120.16H760.16V143.2H783.2ZM757.6 143.2V120.16H734.56V143.2H757.6ZM732 143.2V120.16H708.96V143.2H732ZM708.96 117.6H732V94.56H708.96V117.6ZM734.56 117.6H757.6V94.56H734.56V117.6ZM760.16 117.6H783.2V94.56H760.16V117.6ZM785.76 117.6H808.8V94.56H785.76V117.6ZM811.36 117.6H834.4V94.56H811.36V117.6ZM836.96 117.6H860V94.56H836.96V117.6ZM862.56 117.6H885.6V94.56H862.56V117.6ZM888.16 117.6H911.2V94.56H888.16V117.6ZM911.2 92V68.96H888.16V92H911.2ZM885.6 92V68.96H862.56V92H885.6ZM860 92V68.96H836.96V92H860ZM834.4 92V68.96H811.36V92H834.4ZM808.8 92V68.96H785.76V92H808.8ZM783.2 92V68.96H760.16V92H783.2ZM757.6 92V68.96H734.56V92H757.6ZM732 92V68.96H708.96V92H732ZM708.96 66.4H732V43.36H708.96V66.4ZM734.56 66.4H757.6V43.36H734.56V66.4ZM760.16 66.4H783.2V43.36H760.16V66.4ZM785.76 66.4H808.8V43.36H785.76V66.4ZM811.36 66.4H834.4V43.36H811.36V66.4ZM836.96 66.4H860V43.36H836.96V66.4ZM862.56 66.4H885.6V43.36H862.56V66.4ZM888.16 66.4H911.2V43.36H888.16V66.4ZM911.2 40.8V17.76H888.16V40.8H911.2ZM885.6 40.8V17.76H862.56V40.8H885.6ZM860 40.8V17.76H836.96V40.8H860ZM834.4 40.8V17.76H811.36V40.8H834.4ZM808.8 40.8V17.76H785.76V40.8H808.8ZM783.2 40.8V17.76H760.16V40.8H783.2ZM757.6 40.8V17.76H734.56V40.8H757.6ZM732 40.8V17.76H708.96V40.8H732ZM708.96 15.2H732V-7.84H708.96V15.2ZM734.56 15.2H757.6V-7.84H734.56V15.2ZM760.16 15.2H783.2V-7.84H760.16V15.2ZM785.76 15.2H808.8V-7.84H785.76V15.2ZM811.36 15.2H834.4V-7.84H811.36V15.2ZM836.96 15.2H860V-7.84H836.96V15.2ZM862.56 15.2H885.6V-7.84H862.56V15.2ZM888.16 15.2H911.2V-7.84H888.16V15.2ZM911.2 -10.4V-33.44H888.16V-10.4H911.2ZM885.6 -10.4V-33.44H862.56V-10.4H885.6ZM860 -10.4V-33.44H836.96V-10.4H860ZM834.4 -10.4V-33.44H811.36V-10.4H834.4ZM808.8 -10.4V-33.44H785.76V-10.4H808.8ZM783.2 -10.4V-33.44H760.16V-10.4H783.2ZM757.6 -10.4V-33.44H734.56V-10.4H757.6ZM732 -10.4V-33.44H708.96V-10.4H732ZM708.96 -36H732V-59.04H708.96V-36ZM734.56 -36H757.6V-59.04H734.56V-36ZM760.16 -36H783.2V-59.04H760.16V-36ZM785.76 -36H808.8V-59.04H785.76V-36ZM811.36 -36H834.4V-59.04H811.36V-36ZM836.96 -36H860V-59.04H836.96V-36ZM862.56 -36H885.6V-59.04H862.56V-36ZM888.16 -36H911.2V-59.04H888.16V-36Z" fill="#EAF0F7" fill-opacity="0.4"/>
<path fill-rule="evenodd" clip-rule="evenodd" d="M683.36 -87.2V-100H680.8V-87.2H668V-84.64H680.8V156H683.36V-84.64H924V-87.2H683.36Z" fill="#EAF0F7" fill-opacity="0.4"/>
</g>
<g clip-path="url(#clip5_46_2390)">
<rect width="256" height="256" transform="translate(924 -100)" fill="#4CAF50"/>
<path opacity="0.5" fill-rule="evenodd" clip-rule="evenodd" d="M1169.76 143.2H1180V145.76H1169.76V156H1167.2V145.76H1144.16V156H1141.6V145.76H1118.56V156H1116V145.76H1092.96V156H1090.4V145.76H1067.36V156H1064.8V145.76H1041.76V156H1039.2V145.76H1016.16V156H1013.6V145.76H990.56V156H988V145.76H964.96V156H962.4V145.76H924V143.2H962.4V120.16H924V117.6H962.4V94.56H924V92H962.4V68.96H924V66.4H962.4V43.36H924V40.8H962.4V17.76H924V15.2H962.4V-7.84H924V-10.4H962.4V-33.44H924V-36H962.4V-59.04H924V-61.6H962.4V-100H964.96V-61.6H988V-100H990.56V-61.6H1013.6V-100H1016.16V-61.6H1039.2V-100H1041.76V-61.6H1064.8V-100H1067.36V-61.6H1090.4V-100H1092.96V-61.6H1116V-100H1118.56V-61.6H1141.6V-100H1144.16V-61.6H1167.2V-100H1169.76V-61.6H1180V-59.04H1169.76V-36H1180V-33.44H1169.76V-10.4H1180V-7.84H1169.76V15.2H1180V17.76H1169.76V40.8H1180V43.36H1169.76V66.4H1180V68.96H1169.76V92H1180V94.56H1169.76V117.6H1180V120.16H1169.76V143.2ZM1167.2 143.2V120.16H1144.16V143.2H1167.2ZM1141.6 143.2V120.16H1118.56V143.2H1141.6ZM1116 143.2V120.16H1092.96V143.2H1116ZM1090.4 143.2V120.16H1067.36V143.2H1090.4ZM1064.8 143.2V120.16H1041.76V143.2H1064.8ZM1039.2 143.2V120.16H1016.16V143.2H1039.2ZM1013.6 143.2V120.16H990.56V143.2H1013.6ZM988 143.2V120.16H964.96V143.2H988ZM964.96 117.6H988V94.56H964.96V117.6ZM990.56 117.6H1013.6V94.56H990.56V117.6ZM1016.16 117.6H1039.2V94.56H1016.16V117.6ZM1041.76 117.6H1064.8V94.56H1041.76V117.6ZM1067.36 117.6H1090.4V94.56H1067.36V117.6ZM1092.96 117.6H1116V94.56H1092.96V117.6ZM1118.56 117.6H1141.6V94.56H1118.56V117.6ZM1144.16 117.6H1167.2V94.56H1144.16V117.6ZM1167.2 92V68.96H1144.16V92H1167.2ZM1141.6 92V68.96H1118.56V92H1141.6ZM1116 92V68.96H1092.96V92H1116ZM1090.4 92V68.96H1067.36V92H1090.4ZM1064.8 92V68.96H1041.76V92H1064.8ZM1039.2 92V68.96H1016.16V92H1039.2ZM1013.6 92V68.96H990.56V92H1013.6ZM988 92V68.96H964.96V92H988ZM964.96 66.4H988V43.36H964.96V66.4ZM990.56 66.4H1013.6V43.36H990.56V66.4ZM1016.16 66.4H1039.2V43.36H1016.16V66.4ZM1041.76 66.4H1064.8V43.36H1041.76V66.4ZM1067.36 66.4H1090.4V43.36H1067.36V66.4ZM1092.96 66.4H1116V43.36H1092.96V66.4ZM1118.56 66.4H1141.6V43.36H1118.56V66.4ZM1144.16 66.4H1167.2V43.36H1144.16V66.4ZM1167.2 40.8V17.76H1144.16V40.8H1167.2ZM1141.6 40.8V17.76H1118.56V40.8H1141.6ZM1116 40.8V17.76H1092.96V40.8H1116ZM1090.4 40.8V17.76H1067.36V40.8H1090.4ZM1064.8 40.8V17.76H1041.76V40.8H1064.8ZM1039.2 40.8V17.76H1016.16V40.8H1039.2ZM1013.6 40.8V17.76H990.56V40.8H1013.6ZM988 40.8V17.76H964.96V40.8H988ZM964.96 15.2H988V-7.84H964.96V15.2ZM990.56 15.2H1013.6V-7.84H990.56V15.2ZM1016.16 15.2H1039.2V-7.84H1016.16V15.2ZM1041.76 15.2H1064.8V-7.84H1041.76V15.2ZM1067.36 15.2H1090.4V-7.84H1067.36V15.2ZM1092.96 15.2H1116V-7.84H1092.96V15.2ZM1118.56 15.2H1141.6V-7.84H1118.56V15.2ZM1144.16 15.2H1167.2V-7.84H1144.16V15.2ZM1167.2 -10.4V-33.44H1144.16V-10.4H1167.2ZM1141.6 -10.4V-33.44H1118.56V-10.4H1141.6ZM1116 -10.4V-33.44H1092.96V-10.4H1116ZM1090.4 -10.4V-33.44H1067.36V-10.4H1090.4ZM1064.8 -10.4V-33.44H1041.76V-10.4H1064.8ZM1039.2 -10.4V-33.44H1016.16V-10.4H1039.2ZM1013.6 -10.4V-33.44H990.56V-10.4H1013.6ZM988 -10.4V-33.44H964.96V-10.4H988ZM964.96 -36H988V-59.04H964.96V-36ZM990.56 -36H1013.6V-59.04H990.56V-36ZM1016.16 -36H1039.2V-59.04H1016.16V-36ZM1041.76 -36H1064.8V-59.04H1041.76V-36ZM1067.36 -36H1090.4V-59.04H1067.36V-36ZM1092.96 -36H1116V-59.04H1092.96V-36ZM1118.56 -36H1141.6V-59.04H1118.56V-36ZM1144.16 -36H1167.2V-59.04H1144.16V-36Z" fill="#EAF0F7" fill-opacity="0.4"/>
<path fill-rule="evenodd" clip-rule="evenodd" d="M939.36 -87.2V-100H936.8V-87.2H924V-84.64H936.8V156H939.36V-84.64H1180V-87.2H939.36Z" fill="#EAF0F7" fill-opacity="0.4"/>
</g>
<g clip-path="url(#clip6_46_2390)">
<rect width="256" height="256" transform="translate(-100 156)" fill="#4CAF50"/>
<path opacity="0.5" fill-rule="evenodd" clip-rule="evenodd" d="M145.76 399.2H156V401.76H145.76V412H143.2V401.76H120.16V412H117.6V401.76H94.56V412H92V401.76H68.96V412H66.4V401.76H43.36V412H40.8V401.76H17.76V412H15.2V401.76H-7.84V412H-10.4V401.76H-33.44V412H-36V401.76H-59.04V412H-61.6V401.76H-100V399.2H-61.6V376.16H-100V373.6H-61.6V350.56H-100V348H-61.6V324.96H-100V322.4H-61.6V299.36H-100V296.8H-61.6V273.76H-100V271.2H-61.6V248.16H-100V245.6H-61.6V222.56H-100V220H-61.6V196.96H-100V194.4H-61.6V156H-59.04V194.4H-36V156H-33.44V194.4H-10.4V156H-7.84V194.4H15.2V156H17.76V194.4H40.8V156H43.36V194.4H66.4V156H68.96V194.4H92V156H94.56V194.4H117.6V156H120.16V194.4H143.2V156H145.76V194.4H156V196.96H145.76V220H156V222.56H145.76V245.6H156V248.16H145.76V271.2H156V273.76H145.76V296.8H156V299.36H145.76V322.4H156V324.96H145.76V348H156V350.56H145.76V373.6H156V376.16H145.76V399.2ZM143.2 399.2V376.16H120.16V399.2H143.2ZM117.6 399.2V376.16H94.56V399.2H117.6ZM92 399.2V376.16H68.96V399.2H92ZM66.4 399.2V376.16H43.36V399.2H66.4ZM40.8 399.2V376.16H17.76V399.2H40.8ZM15.2 399.2V376.16H-7.84V399.2H15.2ZM-10.4 399.2V376.16H-33.44V399.2H-10.4ZM-36 399.2V376.16H-59.04V399.2H-36ZM-59.04 373.6H-36V350.56H-59.04V373.6ZM-33.44 373.6H-10.4V350.56H-33.44V373.6ZM-7.84 373.6H15.2V350.56H-7.84V373.6ZM17.76 373.6H40.8V350.56H17.76V373.6ZM43.36 373.6H66.4V350.56H43.36V373.6ZM68.96 373.6H92V350.56H68.96V373.6ZM94.56 373.6H117.6V350.56H94.56V373.6ZM120.16 373.6H143.2V350.56H120.16V373.6ZM143.2 348V324.96H120.16V348H143.2ZM117.6 348V324.96H94.56V348H117.6ZM92 348V324.96H68.96V348H92ZM66.4 348V324.96H43.36V348H66.4ZM40.8 348V324.96H17.76V348H40.8ZM15.2 348V324.96H-7.84V348H15.2ZM-10.4 348V324.96H-33.44V348H-10.4ZM-36 348V324.96H-59.04V348H-36ZM-59.04 322.4H-36V299.36H-59.04V322.4ZM-33.44 322.4H-10.4V299.36H-33.44V322.4ZM-7.84 322.4H15.2V299.36H-7.84V322.4ZM17.76 322.4H40.8V299.36H17.76V322.4ZM43.36 322.4H66.4V299.36H43.36V322.4ZM68.96 322.4H92V299.36H68.96V322.4ZM94.56 322.4H117.6V299.36H94.56V322.4ZM120.16 322.4H143.2V299.36H120.16V322.4ZM143.2 296.8V273.76H120.16V296.8H143.2ZM117.6 296.8V273.76H94.56V296.8H117.6ZM92 296.8V273.76H68.96V296.8H92ZM66.4 296.8V273.76H43.36V296.8H66.4ZM40.8 296.8V273.76H17.76V296.8H40.8ZM15.2 296.8V273.76H-7.84V296.8H15.2ZM-10.4 296.8V273.76H-33.44V296.8H-10.4ZM-36 296.8V273.76H-59.04V296.8H-36ZM-59.04 271.2H-36V248.16H-59.04V271.2ZM-33.44 271.2H-10.4V248.16H-33.44V271.2ZM-7.84 271.2H15.2V248.16H-7.84V271.2ZM17.76 271.2H40.8V248.16H17.76V271.2ZM43.36 271.2H66.4V248.16H43.36V271.2ZM68.96 271.2H92V248.16H68.96V271.2ZM94.56 271.2H117.6V248.16H94.56V271.2ZM120.16 271.2H143.2V248.16H120.16V271.2ZM143.2 245.6V222.56H120.16V245.6H143.2ZM117.6 245.6V222.56H94.56V245.6H117.6ZM92 245.6V222.56H68.96V245.6H92ZM66.4 245.6V222.56H43.36V245.6H66.4ZM40.8 245.6V222.56H17.76V245.6H40.8ZM15.2 245.6V222.56H-7.84V245.6H15.2ZM-10.4 245.6V222.56H-33.44V245.6H-10.4ZM-36 245.6V222.56H-59.04V245.6H-36ZM-59.04 220H-36V196.96H-59.04V220ZM-33.44 220H-10.4V196.96H-33.44V220ZM-7.84 220H15.2V196.96H-7.84V220ZM17.76 220H40.8V196.96H17.76V220ZM43.36 220H66.4V196.96H43.36V220ZM68.96 220H92V196.96H68.96V220ZM94.56 220H117.6V196.96H94.56V220ZM120.16 220H143.2V196.96H120.16V220Z" fill="#EAF0F7" fill-opacity="0.4"/>
<path fill-rule="evenodd" clip-rule="evenodd" d="M-84.64 168.8V156H-87.2V168.8H-100V171.36H-87.2V412H-84.64V171.36H156V168.8H-84.64Z" fill="#EAF0F7" fill-opacity="0.4"/>
</g>
<g clip-path="url(#clip7_46_2390)">
<rect width="256" height="256" transform="translate(156 156)" fill="#4CAF50"/>
<path opacity="0.5" fill-rule="evenodd" clip-rule="evenodd" d="M401.76 399.2H412V401.76H401.76V412H399.2V401.76H376.16V412H373.6V401.76H350.56V412H348V401.76H324.96V412H322.4V401.76H299.36V412H296.8V401.76H273.76V412H271.2V401.76H248.16V412H245.6V401.76H222.56V412H220V401.76H196.96V412H194.4V401.76H156V399.2H194.4V376.16H156V373.6H194.4V350.56H156V348H194.4V324.96H156V322.4H194.4V299.36H156V296.8H194.4V273.76H156V271.2H194.4V248.16H156V245.6H194.4V222.56H156V220H194.4V196.96H156V194.4H194.4V156H196.96V194.4H220V156H222.56V194.4H245.6V156H248.16V194.4H271.2V156H273.76V194.4H296.8V156H299.36V194.4H322.4V156H324.96V194.4H348V156H350.56V194.4H373.6V156H376.16V194.4H399.2V156H401.76V194.4H412V196.96H401.76V220H412V222.56H401.76V245.6H412V248.16H401.76V271.2H412V273.76H401.76V296.8H412V299.36H401.76V322.4H412V324.96H401.76V348H412V350.56H401.76V373.6H412V376.16H401.76V399.2ZM399.2 399.2V376.16H376.16V399.2H399.2ZM373.6 399.2V376.16H350.56V399.2H373.6ZM348 399.2V376.16H324.96V399.2H348ZM322.4 399.2V376.16H299.36V399.2H322.4ZM296.8 399.2V376.16H273.76V399.2H296.8ZM271.2 399.2V376.16H248.16V399.2H271.2ZM245.6 399.2V376.16H222.56V399.2H245.6ZM220 399.2V376.16H196.96V399.2H220ZM196.96 373.6H220V350.56H196.96V373.6ZM222.56 373.6H245.6V350.56H222.56V373.6ZM248.16 373.6H271.2V350.56H248.16V373.6ZM273.76 373.6H296.8V350.56H273.76V373.6ZM299.36 373.6H322.4V350.56H299.36V373.6ZM324.96 373.6H348V350.56H324.96V373.6ZM350.56 373.6H373.6V350.56H350.56V373.6ZM376.16 373.6H399.2V350.56H376.16V373.6ZM399.2 348V324.96H376.16V348H399.2ZM373.6 348V324.96H350.56V348H373.6ZM348 348V324.96H324.96V348H348ZM322.4 348V324.96H299.36V348H322.4ZM296.8 348V324.96H273.76V348H296.8ZM271.2 348V324.96H248.16V348H271.2ZM245.6 348V324.96H222.56V348H245.6ZM220 348V324.96H196.96V348H220ZM196.96 322.4H220V299.36H196.96V322.4ZM222.56 322.4H245.6V299.36H222.56V322.4ZM248.16 322.4H271.2V299.36H248.16V322.4ZM273.76 322.4H296.8V299.36H273.76V322.4ZM299.36 322.4H322.4V299.36H299.36V322.4ZM324.96 322.4H348V299.36H324.96V322.4ZM350.56 322.4H373.6V299.36H350.56V322.4ZM376.16 322.4H399.2V299.36H376.16V322.4ZM399.2 296.8V273.76H376.16V296.8H399.2ZM373.6 296.8V273.76H350.56V296.8H373.6ZM348 296.8V273.76H324.96V296.8H348ZM322.4 296.8V273.76H299.36V296.8H322.4ZM296.8 296.8V273.76H273.76V296.8H296.8ZM271.2 296.8V273.76H248.16V296.8H271.2ZM245.6 296.8V273.76H222.56V296.8H245.6ZM220 296.8V273.76H196.96V296.8H220ZM196.96 271.2H220V248.16H196.96V271.2ZM222.56 271.2H245.6V248.16H222.56V271.2ZM248.16 271.2H271.2V248.16H248.16V271.2ZM273.76 271.2H296.8V248.16H273.76V271.2ZM299.36 271.2H322.4V248.16H299.36V271.2ZM324.96 271.2H348V248.16H324.96V271.2ZM350.56 271.2H373.6V248.16H350.56V271.2ZM376.16 271.2H399.2V248.16H376.16V271.2ZM399.2 245.6V222.56H376.16V245.6H399.2ZM373.6 245.6V222.56H350.56V245.6H373.6ZM348 245.6V222.56H324.96V245.6H348ZM322.4 245.6V222.56H299.36V245.6H322.4ZM296.8 245.6V222.56H273.76V245.6H296.8ZM271.2 245.6V222.56H248.16V245.6H271.2ZM245.6 245.6V222.56H222.56V245.6H245.6ZM220 245.6V222.56H196.96V245.6H220ZM196.96 220H220V196.96H196.96V220ZM222.56 220H245.6V196.96H222.56V220ZM248.16 220H271.2V196.96H248.16V220ZM273.76 220H296.8V196.96H273.76V220ZM299.36 220H322.4V196.96H299.36V220ZM324.96 220H348V196.96H324.96V220ZM350.56 220H373.6V196.96H350.56V220ZM376.16 220H399.2V196.96H376.16V220Z" fill="#EAF0F7" fill-opacity="0.4"/>
<path fill-rule="evenodd" clip-rule="evenodd" d="M171.36 168.8V156H168.8V168.8H156V171.36H168.8V412H171.36V171.36H412V168.8H171.36Z" fill="#EAF0F7" fill-opacity="0.4"/>
</g>
<g clip-path="url(#clip8_46_2390)">
<rect width="256" height="256" transform="translate(412 156)" fill="#4CAF50"/>
<path opacity="0.5" fill-rule="evenodd" clip-rule="evenodd" d="M657.76 399.2H668V401.76H657.76V412H655.2V401.76H632.16V412H629.6V401.76H606.56V412H604V401.76H580.96V412H578.4V401.76H555.36V412H552.8V401.76H529.76V412H527.2V401.76H504.16V412H501.6V401.76H478.56V412H476V401.76H452.96V412H450.4V401.76H412V399.2H450.4V376.16H412V373.6H450.4V350.56H412V348H450.4V324.96H412V322.4H450.4V299.36H412V296.8H450.4V273.76H412V271.2H450.4V248.16H412V245.6H450.4V222.56H412V220H450.4V196.96H412V194.4H450.4V156H452.96V194.4H476V156H478.56V194.4H501.6V156H504.16V194.4H527.2V156H529.76V194.4H552.8V156H555.36V194.4H578.4V156H580.96V194.4H604V156H606.56V194.4H629.6V156H632.16V194.4H655.2V156H657.76V194.4H668V196.96H657.76V220H668V222.56H657.76V245.6H668V248.16H657.76V271.2H668V273.76H657.76V296.8H668V299.36H657.76V322.4H668V324.96H657.76V348H668V350.56H657.76V373.6H668V376.16H657.76V399.2ZM655.2 399.2V376.16H632.16V399.2H655.2ZM629.6 399.2V376.16H606.56V399.2H629.6ZM604 399.2V376.16H580.96V399.2H604ZM578.4 399.2V376.16H555.36V399.2H578.4ZM552.8 399.2V376.16H529.76V399.2H552.8ZM527.2 399.2V376.16H504.16V399.2H527.2ZM501.6 399.2V376.16H478.56V399.2H501.6ZM476 399.2V376.16H452.96V399.2H476ZM452.96 373.6H476V350.56H452.96V373.6ZM478.56 373.6H501.6V350.56H478.56V373.6ZM504.16 373.6H527.2V350.56H504.16V373.6ZM529.76 373.6H552.8V350.56H529.76V373.6ZM555.36 373.6H578.4V350.56H555.36V373.6ZM580.96 373.6H604V350.56H580.96V373.6ZM606.56 373.6H629.6V350.56H606.56V373.6ZM632.16 373.6H655.2V350.56H632.16V373.6ZM655.2 348V324.96H632.16V348H655.2ZM629.6 348V324.96H606.56V348H629.6ZM604 348V324.96H580.96V348H604ZM578.4 348V324.96H555.36V348H578.4ZM552.8 348V324.96H529.76V348H552.8ZM527.2 348V324.96H504.16V348H527.2ZM501.6 348V324.96H478.56V348H501.6ZM476 348V324.96H452.96V348H476ZM452.96 322.4H476V299.36H452.96V322.4ZM478.56 322.4H501.6V299.36H478.56V322.4ZM504.16 322.4H527.2V299.36H504.16V322.4ZM529.76 322.4H552.8V299.36H529.76V322.4ZM555.36 322.4H578.4V299.36H555.36V322.4ZM580.96 322.4H604V299.36H580.96V322.4ZM606.56 322.4H629.6V299.36H606.56V322.4ZM632.16 322.4H655.2V299.36H632.16V322.4ZM655.2 296.8V273.76H632.16V296.8H655.2ZM629.6 296.8V273.76H606.56V296.8H629.6ZM604 296.8V273.76H580.96V296.8H604ZM578.4 296.8V273.76H555.36V296.8H578.4ZM552.8 296.8V273.76H529.76V296.8H552.8ZM527.2 296.8V273.76H504.16V296.8H527.2ZM501.6 296.8V273.76H478.56V296.8H501.6ZM476 296.8V273.76H452.96V296.8H476ZM452.96 271.2H476V248.16H452.96V271.2ZM478.56 271.2H501.6V248.16H478.56V271.2ZM504.16 271.2H527.2V248.16H504.16V271.2ZM529.76 271.2H552.8V248.16H529.76V271.2ZM555.36 271.2H578.4V248.16H555.36V271.2ZM580.96 271.2H604V248.16H580.96V271.2ZM606.56 271.2H629.6V248.16H606.56V271.2ZM632.16 271.2H655.2V248.16H632.16V271.2ZM655.2 245.6V222.56H632.16V245.6H655.2ZM629.6 245.6V222.56H606.56V245.6H629.6ZM604 245.6V222.56H580.96V245.6H604ZM578.4 245.6V222.56H555.36V245.6H578.4ZM552.8 245.6V222.56H529.76V245.6H552.8ZM527.2 245.6V222.56H504.16V245.6H527.2ZM501.6 245.6V222.56H478.56V245.6H501.6ZM476 245.6V222.56H452.96V245.6H476ZM452.96 220H476V196.96H452.96V220ZM478.56 220H501.6V196.96H478.56V220ZM504.16 220H527.2V196.96H504.16V220ZM529.76 220H552.8V196.96H529.76V220ZM555.36 220H578.4V196.96H555.36V220ZM580.96 220H604V196.96H580.96V220ZM606.56 220H629.6V196.96H606.56V220ZM632.16 220H655.2V196.96H632.16V220Z" fill="#EAF0F7" fill-opacity="0.4"/>
<path fill-rule="evenodd" clip-rule="evenodd" d="M427.36 168.8V156H424.8V168.8H412V171.36H424.8V412H427.36V171.36H668V168.8H427.36Z" fill="#EAF0F7" fill-opacity="0.4"/>
</g>
<g clip-path="url(#clip9_46_2390)">
<rect width="256" height="256" transform="translate(668 156)" fill="#4CAF50"/>
<path opacity="0.5" fill-rule="evenodd" clip-rule="evenodd" d="M913.76 399.2H924V401.76H913.76V412H911.2V401.76H888.16V412H885.6V401.76H862.56V412H860V401.76H836.96V412H834.4V401.76H811.36V412H808.8V401.76H785.76V412H783.2V401.76H760.16V412H757.6V401.76H734.56V412H732V401.76H708.96V412H706.4V401.76H668V399.2H706.4V376.16H668V373.6H706.4V350.56H668V348H706.4V324.96H668V322.4H706.4V299.36H668V296.8H706.4V273.76H668V271.2H706.4V248.16H668V245.6H706.4V222.56H668V220H706.4V196.96H668V194.4H706.4V156H708.96V194.4H732V156H734.56V194.4H757.6V156H760.16V194.4H783.2V156H785.76V194.4H808.8V156H811.36V194.4H834.4V156H836.96V194.4H860V156H862.56V194.4H885.6V156H888.16V194.4H911.2V156H913.76V194.4H924V196.96H913.76V220H924V222.56H913.76V245.6H924V248.16H913.76V271.2H924V273.76H913.76V296.8H924V299.36H913.76V322.4H924V324.96H913.76V348H924V350.56H913.76V373.6H924V376.16H913.76V399.2ZM911.2 399.2V376.16H888.16V399.2H911.2ZM885.6 399.2V376.16H862.56V399.2H885.6ZM860 399.2V376.16H836.96V399.2H860ZM834.4 399.2V376.16H811.36V399.2H834.4ZM808.8 399.2V376.16H785.76V399.2H808.8ZM783.2 399.2V376.16H760.16V399.2H783.2ZM757.6 399.2V376.16H734.56V399.2H757.6ZM732 399.2V376.16H708.96V399.2H732ZM708.96 373.6H732V350.56H708.96V373.6ZM734.56 373.6H757.6V350.56H734.56V373.6ZM760.16 373.6H783.2V350.56H760.16V373.6ZM785.76 373.6H808.8V350.56H785.76V373.6ZM811.36 373.6H834.4V350.56H811.36V373.6ZM836.96 373.6H860V350.56H836.96V373.6ZM862.56 373.6H885.6V350.56H862.56V373.6ZM888.16 373.6H911.2V350.56H888.16V373.6ZM911.2 348V324.96H888.16V348H911.2ZM885.6 348V324.96H862.56V348H885.6ZM860 348V324.96H836.96V348H860ZM834.4 348V324.96H811.36V348H834.4ZM808.8 348V324.96H785.76V348H808.8ZM783.2 348V324.96H760.16V348H783.2ZM757.6 348V324.96H734.56V348H757.6ZM732 348V324.96H708.96V348H732ZM708.96 322.4H732V299.36H708.96V322.4ZM734.56 322.4H757.6V299.36H734.56V322.4ZM760.16 322.4H783.2V299.36H760.16V322.4ZM785.76 322.4H808.8V299.36H785.76V322.4ZM811.36 322.4H834.4V299.36H811.36V322.4ZM836.96 322.4H860V299.36H836.96V322.4ZM862.56 322.4H885.6V299.36H862.56V322.4ZM888.16 322.4H911.2V299.36H888.16V322.4ZM911.2 296.8V273.76H888.16V296.8H911.2ZM885.6 296.8V273.76H862.56V296.8H885.6ZM860 296.8V273.76H836.96V296.8H860ZM834.4 296.8V273.76H811.36V296.8H834.4ZM808.8 296.8V273.76H785.76V296.8H808.8ZM783.2 296.8V273.76H760.16V296.8H783.2ZM757.6 296.8V273.76H734.56V296.8H757.6ZM732 296.8V273.76H708.96V296.8H732ZM708.96 271.2H732V248.16H708.96V271.2ZM734.56 271.2H757.6V248.16H734.56V271.2ZM760.16 271.2H783.2V248.16H760.16V271.2ZM785.76 271.2H808.8V248.16H785.76V271.2ZM811.36 271.2H834.4V248.16H811.36V271.2ZM836.96 271.2H860V248.16H836.96V271.2ZM862.56 271.2H885.6V248.16H862.56V271.2ZM888.16 271.2H911.2V248.16H888.16V271.2ZM911.2 245.6V222.56H888.16V245.6H911.2ZM885.6 245.6V222.56H862.56V245.6H885.6ZM860 245.6V222.56H836.96V245.6H860ZM834.4 245.6V222.56H811.36V245.6H834.4ZM808.8 245.6V222.56H785.76V245.6H808.8ZM783.2 245.6V222.56H760.16V245.6H783.2ZM757.6 245.6V222.56H734.56V245.6H757.6ZM732 245.6V222.56H708.96V245.6H732ZM708.96 220H732V196.96H708.96V220ZM734.56 220H757.6V196.96H734.56V220ZM760.16 220H783.2V196.96H760.16V220ZM785.76 220H808.8V196.96H785.76V220ZM811.36 220H834.4V196.96H811.36V220ZM836.96 220H860V196.96H836.96V220ZM862.56 220H885.6V196.96H862.56V220ZM888.16 220H911.2V196.96H888.16V220Z" fill="#EAF0F7" fill-opacity="0.4"/>
<path fill-rule="evenodd" clip-rule="evenodd" d="M683.36 168.8V156H680.8V168.8H668V171.36H680.8V412H683.36V171.36H924V168.8H683.36Z" fill="#EAF0F7" fill-opacity="0.4"/>
</g>
<g clip-path="url(#clip10_46_2390)">
<rect width="256" height="256" transform="translate(924 156)" fill="#4CAF50"/>
<path opacity="0.5" fill-rule="evenodd" clip-rule="evenodd" d="M1169.76 399.2H1180V401.76H1169.76V412H1167.2V401.76H1144.16V412H1141.6V401.76H1118.56V412H1116V401.76H1092.96V412H1090.4V401.76H1067.36V412H1064.8V401.76H1041.76V412H1039.2V401.76H1016.16V412H1013.6V401.76H990.56V412H988V401.76H964.96V412H962.4V401.76H924V399.2H962.4V376.16H924V373.6H962.4V350.56H924V348H962.4V324.96H924V322.4H962.4V299.36H924V296.8H962.4V273.76H924V271.2H962.4V248.16H924V245.6H962.4V222.56H924V220H962.4V196.96H924V194.4H962.4V156H964.96V194.4H988V156H990.56V194.4H1013.6V156H1016.16V194.4H1039.2V156H1041.76V194.4H1064.8V156H1067.36V194.4H1090.4V156H1092.96V194.4H1116V156H1118.56V194.4H1141.6V156H1144.16V194.4H1167.2V156H1169.76V194.4H1180V196.96H1169.76V220H1180V222.56H1169.76V245.6H1180V248.16H1169.76V271.2H1180V273.76H1169.76V296.8H1180V299.36H1169.76V322.4H1180V324.96H1169.76V348H1180V350.56H1169.76V373.6H1180V376.16H1169.76V399.2ZM1167.2 399.2V376.16H1144.16V399.2H1167.2ZM1141.6 399.2V376.16H1118.56V399.2H1141.6ZM1116 399.2V376.16H1092.96V399.2H1116ZM1090.4 399.2V376.16H1067.36V399.2H1090.4ZM1064.8 399.2V376.16H1041.76V399.2H1064.8ZM1039.2 399.2V376.16H1016.16V399.2H1039.2ZM1013.6 399.2V376.16H990.56V399.2H1013.6ZM988 399.2V376.16H964.96V399.2H988ZM964.96 373.6H988V350.56H964.96V373.6ZM990.56 373.6H1013.6V350.56H990.56V373.6ZM1016.16 373.6H1039.2V350.56H1016.16V373.6ZM1041.76 373.6H1064.8V350.56H1041.76V373.6ZM1067.36 373.6H1090.4V350.56H1067.36V373.6ZM1092.96 373.6H1116V350.56H1092.96V373.6ZM1118.56 373.6H1141.6V350.56H1118.56V373.6ZM1144.16 373.6H1167.2V350.56H1144.16V373.6ZM1167.2 348V324.96H1144.16V348H1167.2ZM1141.6 348V324.96H1118.56V348H1141.6ZM1116 348V324.96H1092.96V348H1116ZM1090.4 348V324.96H1067.36V348H1090.4ZM1064.8 348V324.96H1041.76V348H1064.8ZM1039.2 348V324.96H1016.16V348H1039.2ZM1013.6 348V324.96H990.56V348H1013.6ZM988 348V324.96H964.96V348H988ZM964.96 322.4H988V299.36H964.96V322.4ZM990.56 322.4H1013.6V299.36H990.56V322.4ZM1016.16 322.4H1039.2V299.36H1016.16V322.4ZM1041.76 322.4H1064.8V299.36H1041.76V322.4ZM1067.36 322.4H1090.4V299.36H1067.36V322.4ZM1092.96 322.4H1116V299.36H1092.96V322.4ZM1118.56 322.4H1141.6V299.36H1118.56V322.4ZM1144.16 322.4H1167.2V299.36H1144.16V322.4ZM1167.2 296.8V273.76H1144.16V296.8H1167.2ZM1141.6 296.8V273.76H1118.56V296.8H1141.6ZM1116 296.8V273.76H1092.96V296.8H1116ZM1090.4 296.8V273.76H1067.36V296.8H1090.4ZM1064.8 296.8V273.76H1041.76V296.8H1064.8ZM1039.2 296.8V273.76H1016.16V296.8H1039.2ZM1013.6 296.8V273.76H990.56V296.8H1013.6ZM988 296.8V273.76H964.96V296.8H988ZM964.96 271.2H988V248.16H964.96V271.2ZM990.56 271.2H1013.6V248.16H990.56V271.2ZM1016.16 271.2H1039.2V248.16H1016.16V271.2ZM1041.76 271.2H1064.8V248.16H1041.76V271.2ZM1067.36 271.2H1090.4V248.16H1067.36V271.2ZM1092.96 271.2H1116V248.16H1092.96V271.2ZM1118.56 271.2H1141.6V248.16H1118.56V271.2ZM1144.16 271.2H1167.2V248.16H1144.16V271.2ZM1167.2 245.6V222.56H1144.16V245.6H1167.2ZM1141.6 245.6V222.56H1118.56V245.6H1141.6ZM1116 245.6V222.56H1092.96V245.6H1116ZM1090.4 245.6V222.56H1067.36V245.6H1090.4ZM1064.8 245.6V222.56H1041.76V245.6H1064.8ZM1039.2 245.6V222.56H1016.16V245.6H1039.2ZM1013.6 245.6V222.56H990.56V245.6H1013.6ZM988 245.6V222.56H964.96V245.6H988ZM964.96 220H988V196.96H964.96V220ZM990.56 220H1013.6V196.96H990.56V220ZM1016.16 220H1039.2V196.96H1016.16V220ZM1041.76 220H1064.8V196.96H1041.76V220ZM1067.36 220H1090.4V196.96H1067.36V220ZM1092.96 220H1116V196.96H1092.96V220ZM1118.56 220H1141.6V196.96H1118.56V220ZM1144.16 220H1167.2V196.96H1144.16V220Z" fill="#EAF0F7" fill-opacity="0.4"/>
<path fill-rule="evenodd" clip-rule="evenodd" d="M939.36 168.8V156H936.8V168.8H924V171.36H936.8V412H939.36V171.36H1180V168.8H939.36Z" fill="#EAF0F7" fill-opacity="0.4"/>
</g>
<g clip-path="url(#clip11_46_2390)">
<rect width="256" height="256" transform="translate(-100 412)" fill="#4CAF50"/>
<path opacity="0.5" fill-rule="evenodd" clip-rule="evenodd" d="M145.76 655.2H156V657.76H145.76V668H143.2V657.76H120.16V668H117.6V657.76H94.56V668H92V657.76H68.96V668H66.4V657.76H43.36V668H40.8V657.76H17.76V668H15.2V657.76H-7.84V668H-10.4V657.76H-33.44V668H-36V657.76H-59.04V668H-61.6V657.76H-100V655.2H-61.6V632.16H-100V629.6H-61.6V606.56H-100V604H-61.6V580.96H-100V578.4H-61.6V555.36H-100V552.8H-61.6V529.76H-100V527.2H-61.6V504.16H-100V501.6H-61.6V478.56H-100V476H-61.6V452.96H-100V450.4H-61.6V412H-59.04V450.4H-36V412H-33.44V450.4H-10.4V412H-7.84V450.4H15.2V412H17.76V450.4H40.8V412H43.36V450.4H66.4V412H68.96V450.4H92V412H94.56V450.4H117.6V412H120.16V450.4H143.2V412H145.76V450.4H156V452.96H145.76V476H156V478.56H145.76V501.6H156V504.16H145.76V527.2H156V529.76H145.76V552.8H156V555.36H145.76V578.4H156V580.96H145.76V604H156V606.56H145.76V629.6H156V632.16H145.76V655.2ZM143.2 655.2V632.16H120.16V655.2H143.2ZM117.6 655.2V632.16H94.56V655.2H117.6ZM92 655.2V632.16H68.96V655.2H92ZM66.4 655.2V632.16H43.36V655.2H66.4ZM40.8 655.2V632.16H17.76V655.2H40.8ZM15.2 655.2V632.16H-7.84V655.2H15.2ZM-10.4 655.2V632.16H-33.44V655.2H-10.4ZM-36 655.2V632.16H-59.04V655.2H-36ZM-59.04 629.6H-36V606.56H-59.04V629.6ZM-33.44 629.6H-10.4V606.56H-33.44V629.6ZM-7.84 629.6H15.2V606.56H-7.84V629.6ZM17.76 629.6H40.8V606.56H17.76V629.6ZM43.36 629.6H66.4V606.56H43.36V629.6ZM68.96 629.6H92V606.56H68.96V629.6ZM94.56 629.6H117.6V606.56H94.56V629.6ZM120.16 629.6H143.2V606.56H120.16V629.6ZM143.2 604V580.96H120.16V604H143.2ZM117.6 604V580.96H94.56V604H117.6ZM92 604V580.96H68.96V604H92ZM66.4 604V580.96H43.36V604H66.4ZM40.8 604V580.96H17.76V604H40.8ZM15.2 604V580.96H-7.84V604H15.2ZM-10.4 604V580.96H-33.44V604H-10.4ZM-36 604V580.96H-59.04V604H-36ZM-59.04 578.4H-36V555.36H-59.04V578.4ZM-33.44 578.4H-10.4V555.36H-33.44V578.4ZM-7.84 578.4H15.2V555.36H-7.84V578.4ZM17.76 578.4H40.8V555.36H17.76V578.4ZM43.36 578.4H66.4V555.36H43.36V578.4ZM68.96 578.4H92V555.36H68.96V578.4ZM94.56 578.4H117.6V555.36H94.56V578.4ZM120.16 578.4H143.2V555.36H120.16V578.4ZM143.2 552.8V529.76H120.16V552.8H143.2ZM117.6 552.8V529.76H94.56V552.8H117.6ZM92 552.8V529.76H68.96V552.8H92ZM66.4 552.8V529.76H43.36V552.8H66.4ZM40.8 552.8V529.76H17.76V552.8H40.8ZM15.2 552.8V529.76H-7.84V552.8H15.2ZM-10.4 552.8V529.76H-33.44V552.8H-10.4ZM-36 552.8V529.76H-59.04V552.8H-36ZM-59.04 527.2H-36V504.16H-59.04V527.2ZM-33.44 527.2H-10.4V504.16H-33.44V527.2ZM-7.84 527.2H15.2V504.16H-7.84V527.2ZM17.76 527.2H40.8V504.16H17.76V527.2ZM43.36 527.2H66.4V504.16H43.36V527.2ZM68.96 527.2H92V504.16H68.96V527.2ZM94.56 527.2H117.6V504.16H94.56V527.2ZM120.16 527.2H143.2V504.16H120.16V527.2ZM143.2 501.6V478.56H120.16V501.6H143.2ZM117.6 501.6V478.56H94.56V501.6H117.6ZM92 501.6V478.56H68.96V501.6H92ZM66.4 501.6V478.56H43.36V501.6H66.4ZM40.8 501.6V478.56H17.76V501.6H40.8ZM15.2 501.6V478.56H-7.84V501.6H15.2ZM-10.4 501.6V478.56H-33.44V501.6H-10.4ZM-36 501.6V478.56H-59.04V501.6H-36ZM-59.04 476H-36V452.96H-59.04V476ZM-33.44 476H-10.4V452.96H-33.44V476ZM-7.84 476H15.2V452.96H-7.84V476ZM17.76 476H40.8V452.96H17.76V476ZM43.36 476H66.4V452.96H43.36V476ZM68.96 476H92V452.96H68.96V476ZM94.56 476H117.6V452.96H94.56V476ZM120.16 476H143.2V452.96H120.16V476Z" fill="#EAF0F7" fill-opacity="0.4"/>
<path fill-rule="evenodd" clip-rule="evenodd" d="M-84.64 424.8V412H-87.2V424.8H-100V427.36H-87.2V668H-84.64V427.36H156V424.8H-84.64Z" fill="#EAF0F7" fill-opacity="0.4"/>
</g>
<g clip-path="url(#clip12_46_2390)">
<rect width="256" height="256" transform="translate(156 412)" fill="#4CAF50"/>
<path opacity="0.5" fill-rule="evenodd" clip-rule="evenodd" d="M401.76 655.2H412V657.76H401.76V668H399.2V657.76H376.16V668H373.6V657.76H350.56V668H348V657.76H324.96V668H322.4V657.76H299.36V668H296.8V657.76H273.76V668H271.2V657.76H248.16V668H245.6V657.76H222.56V668H220V657.76H196.96V668H194.4V657.76H156V655.2H194.4V632.16H156V629.6H194.4V606.56H156V604H194.4V580.96H156V578.4H194.4V555.36H156V552.8H194.4V529.76H156V527.2H194.4V504.16H156V501.6H194.4V478.56H156V476H194.4V452.96H156V450.4H194.4V412H196.96V450.4H220V412H222.56V450.4H245.6V412H248.16V450.4H271.2V412H273.76V450.4H296.8V412H299.36V450.4H322.4V412H324.96V450.4H348V412H350.56V450.4H373.6V412H376.16V450.4H399.2V412H401.76V450.4H412V452.96H401.76V476H412V478.56H401.76V501.6H412V504.16H401.76V527.2H412V529.76H401.76V552.8H412V555.36H401.76V578.4H412V580.96H401.76V604H412V606.56H401.76V629.6H412V632.16H401.76V655.2ZM399.2 655.2V632.16H376.16V655.2H399.2ZM373.6 655.2V632.16H350.56V655.2H373.6ZM348 655.2V632.16H324.96V655.2H348ZM322.4 655.2V632.16H299.36V655.2H322.4ZM296.8 655.2V632.16H273.76V655.2H296.8ZM271.2 655.2V632.16H248.16V655.2H271.2ZM245.6 655.2V632.16H222.56V655.2H245.6ZM220 655.2V632.16H196.96V655.2H220ZM196.96 629.6H220V606.56H196.96V629.6ZM222.56 629.6H245.6V606.56H222.56V629.6ZM248.16 629.6H271.2V606.56H248.16V629.6ZM273.76 629.6H296.8V606.56H273.76V629.6ZM299.36 629.6H322.4V606.56H299.36V629.6ZM324.96 629.6H348V606.56H324.96V629.6ZM350.56 629.6H373.6V606.56H350.56V629.6ZM376.16 629.6H399.2V606.56H376.16V629.6ZM399.2 604V580.96H376.16V604H399.2ZM373.6 604V580.96H350.56V604H373.6ZM348 604V580.96H324.96V604H348ZM322.4 604V580.96H299.36V604H322.4ZM296.8 604V580.96H273.76V604H296.8ZM271.2 604V580.96H248.16V604H271.2ZM245.6 604V580.96H222.56V604H245.6ZM220 604V580.96H196.96V604H220ZM196.96 578.4H220V555.36H196.96V578.4ZM222.56 578.4H245.6V555.36H222.56V578.4ZM248.16 578.4H271.2V555.36H248.16V578.4ZM273.76 578.4H296.8V555.36H273.76V578.4ZM299.36 578.4H322.4V555.36H299.36V578.4ZM324.96 578.4H348V555.36H324.96V578.4ZM350.56 578.4H373.6V555.36H350.56V578.4ZM376.16 578.4H399.2V555.36H376.16V578.4ZM399.2 552.8V529.76H376.16V552.8H399.2ZM373.6 552.8V529.76H350.56V552.8H373.6ZM348 552.8V529.76H324.96V552.8H348ZM322.4 552.8V529.76H299.36V552.8H322.4ZM296.8 552.8V529.76H273.76V552.8H296.8ZM271.2 552.8V529.76H248.16V552.8H271.2ZM245.6 552.8V529.76H222.56V552.8H245.6ZM220 552.8V529.76H196.96V552.8H220ZM196.96 527.2H220V504.16H196.96V527.2ZM222.56 527.2H245.6V504.16H222.56V527.2ZM248.16 527.2H271.2V504.16H248.16V527.2ZM273.76 527.2H296.8V504.16H273.76V527.2ZM299.36 527.2H322.4V504.16H299.36V527.2ZM324.96 527.2H348V504.16H324.96V527.2ZM350.56 527.2H373.6V504.16H350.56V527.2ZM376.16 527.2H399.2V504.16H376.16V527.2ZM399.2 501.6V478.56H376.16V501.6H399.2ZM373.6 501.6V478.56H350.56V501.6H373.6ZM348 501.6V478.56H324.96V501.6H348ZM322.4 501.6V478.56H299.36V501.6H322.4ZM296.8 501.6V478.56H273.76V501.6H296.8ZM271.2 501.6V478.56H248.16V501.6H271.2ZM245.6 501.6V478.56H222.56V501.6H245.6ZM220 501.6V478.56H196.96V501.6H220ZM196.96 476H220V452.96H196.96V476ZM222.56 476H245.6V452.96H222.56V476ZM248.16 476H271.2V452.96H248.16V476ZM273.76 476H296.8V452.96H273.76V476ZM299.36 476H322.4V452.96H299.36V476ZM324.96 476H348V452.96H324.96V476ZM350.56 476H373.6V452.96H350.56V476ZM376.16 476H399.2V452.96H376.16V476Z" fill="#EAF0F7" fill-opacity="0.4"/>
<path fill-rule="evenodd" clip-rule="evenodd" d="M171.36 424.8V412H168.8V424.8H156V427.36H168.8V668H171.36V427.36H412V424.8H171.36Z" fill="#EAF0F7" fill-opacity="0.4"/>
</g>
<g clip-path="url(#clip13_46_2390)">
<rect width="256" height="256" transform="translate(412 412)" fill="#4CAF50"/>
<path opacity="0.5" fill-rule="evenodd" clip-rule="evenodd" d="M657.76 655.2H668V657.76H657.76V668H655.2V657.76H632.16V668H629.6V657.76H606.56V668H604V657.76H580.96V668H578.4V657.76H555.36V668H552.8V657.76H529.76V668H527.2V657.76H504.16V668H501.6V657.76H478.56V668H476V657.76H452.96V668H450.4V657.76H412V655.2H450.4V632.16H412V629.6H450.4V606.56H412V604H450.4V580.96H412V578.4H450.4V555.36H412V552.8H450.4V529.76H412V527.2H450.4V504.16H412V501.6H450.4V478.56H412V476H450.4V452.96H412V450.4H450.4V412H452.96V450.4H476V412H478.56V450.4H501.6V412H504.16V450.4H527.2V412H529.76V450.4H552.8V412H555.36V450.4H578.4V412H580.96V450.4H604V412H606.56V450.4H629.6V412H632.16V450.4H655.2V412H657.76V450.4H668V452.96H657.76V476H668V478.56H657.76V501.6H668V504.16H657.76V527.2H668V529.76H657.76V552.8H668V555.36H657.76V578.4H668V580.96H657.76V604H668V606.56H657.76V629.6H668V632.16H657.76V655.2ZM655.2 655.2V632.16H632.16V655.2H655.2ZM629.6 655.2V632.16H606.56V655.2H629.6ZM604 655.2V632.16H580.96V655.2H604ZM578.4 655.2V632.16H555.36V655.2H578.4ZM552.8 655.2V632.16H529.76V655.2H552.8ZM527.2 655.2V632.16H504.16V655.2H527.2ZM501.6 655.2V632.16H478.56V655.2H501.6ZM476 655.2V632.16H452.96V655.2H476ZM452.96 629.6H476V606.56H452.96V629.6ZM478.56 629.6H501.6V606.56H478.56V629.6ZM504.16 629.6H527.2V606.56H504.16V629.6ZM529.76 629.6H552.8V606.56H529.76V629.6ZM555.36 629.6H578.4V606.56H555.36V629.6ZM580.96 629.6H604V606.56H580.96V629.6ZM606.56 629.6H629.6V606.56H606.56V629.6ZM632.16 629.6H655.2V606.56H632.16V629.6ZM655.2 604V580.96H632.16V604H655.2ZM629.6 604V580.96H606.56V604H629.6ZM604 604V580.96H580.96V604H604ZM578.4 604V580.96H555.36V604H578.4ZM552.8 604V580.96H529.76V604H552.8ZM527.2 604V580.96H504.16V604H527.2ZM501.6 604V580.96H478.56V604H501.6ZM476 604V580.96H452.96V604H476ZM452.96 578.4H476V555.36H452.96V578.4ZM478.56 578.4H501.6V555.36H478.56V578.4ZM504.16 578.4H527.2V555.36H504.16V578.4ZM529.76 578.4H552.8V555.36H529.76V578.4ZM555.36 578.4H578.4V555.36H555.36V578.4ZM580.96 578.4H604V555.36H580.96V578.4ZM606.56 578.4H629.6V555.36H606.56V578.4ZM632.16 578.4H655.2V555.36H632.16V578.4ZM655.2 552.8V529.76H632.16V552.8H655.2ZM629.6 552.8V529.76H606.56V552.8H629.6ZM604 552.8V529.76H580.96V552.8H604ZM578.4 552.8V529.76H555.36V552.8H578.4ZM552.8 552.8V529.76H529.76V552.8H552.8ZM527.2 552.8V529.76H504.16V552.8H527.2ZM501.6 552.8V529.76H478.56V552.8H501.6ZM476 552.8V529.76H452.96V552.8H476ZM452.96 527.2H476V504.16H452.96V527.2ZM478.56 527.2H501.6V504.16H478.56V527.2ZM504.16 527.2H527.2V504.16H504.16V527.2ZM529.76 527.2H552.8V504.16H529.76V527.2ZM555.36 527.2H578.4V504.16H555.36V527.2ZM580.96 527.2H604V504.16H580.96V527.2ZM606.56 527.2H629.6V504.16H606.56V527.2ZM632.16 527.2H655.2V504.16H632.16V527.2ZM655.2 501.6V478.56H632.16V501.6H655.2ZM629.6 501.6V478.56H606.56V501.6H629.6ZM604 501.6V478.56H580.96V501.6H604ZM578.4 501.6V478.56H555.36V501.6H578.4ZM552.8 501.6V478.56H529.76V501.6H552.8ZM527.2 501.6V478.56H504.16V501.6H527.2ZM501.6 501.6V478.56H478.56V501.6H501.6ZM476 501.6V478.56H452.96V501.6H476ZM452.96 476H476V452.96H452.96V476ZM478.56 476H501.6V452.96H478.56V476ZM504.16 476H527.2V452.96H504.16V476ZM529.76 476H552.8V452.96H529.76V476ZM555.36 476H578.4V452.96H555.36V476ZM580.96 476H604V452.96H580.96V476ZM606.56 476H629.6V452.96H606.56V476ZM632.16 476H655.2V452.96H632.16V476Z" fill="#EAF0F7" fill-opacity="0.4"/>
<path fill-rule="evenodd" clip-rule="evenodd" d="M427.36 424.8V412H424.8V424.8H412V427.36H424.8V668H427.36V427.36H668V424.8H427.36Z" fill="#EAF0F7" fill-opacity="0.4"/>
</g>
<g clip-path="url(#clip14_46_2390)">
<rect width="256" height="256" transform="translate(668 412)" fill="#4CAF50"/>
<path opacity="0.5" fill-rule="evenodd" clip-rule="evenodd" d="M913.76 655.2H924V657.76H913.76V668H911.2V657.76H888.16V668H885.6V657.76H862.56V668H860V657.76H836.96V668H834.4V657.76H811.36V668H808.8V657.76H785.76V668H783.2V657.76H760.16V668H757.6V657.76H734.56V668H732V657.76H708.96V668H706.4V657.76H668V655.2H706.4V632.16H668V629.6H706.4V606.56H668V604H706.4V580.96H668V578.4H706.4V555.36H668V552.8H706.4V529.76H668V527.2H706.4V504.16H668V501.6H706.4V478.56H668V476H706.4V452.96H668V450.4H706.4V412H708.96V450.4H732V412H734.56V450.4H757.6V412H760.16V450.4H783.2V412H785.76V450.4H808.8V412H811.36V450.4H834.4V412H836.96V450.4H860V412H862.56V450.4H885.6V412H888.16V450.4H911.2V412H913.76V450.4H924V452.96H913.76V476H924V478.56H913.76V501.6H924V504.16H913.76V527.2H924V529.76H913.76V552.8H924V555.36H913.76V578.4H924V580.96H913.76V604H924V606.56H913.76V629.6H924V632.16H913.76V655.2ZM911.2 655.2V632.16H888.16V655.2H911.2ZM885.6 655.2V632.16H862.56V655.2H885.6ZM860 655.2V632.16H836.96V655.2H860ZM834.4 655.2V632.16H811.36V655.2H834.4ZM808.8 655.2V632.16H785.76V655.2H808.8ZM783.2 655.2V632.16H760.16V655.2H783.2ZM757.6 655.2V632.16H734.56V655.2H757.6ZM732 655.2V632.16H708.96V655.2H732ZM708.96 629.6H732V606.56H708.96V629.6ZM734.56 629.6H757.6V606.56H734.56V629.6ZM760.16 629.6H783.2V606.56H760.16V629.6ZM785.76 629.6H808.8V606.56H785.76V629.6ZM811.36 629.6H834.4V606.56H811.36V629.6ZM836.96 629.6H860V606.56H836.96V629.6ZM862.56 629.6H885.6V606.56H862.56V629.6ZM888.16 629.6H911.2V606.56H888.16V629.6ZM911.2 604V580.96H888.16V604H911.2ZM885.6 604V580.96H862.56V604H885.6ZM860 604V580.96H836.96V604H860ZM834.4 604V580.96H811.36V604H834.4ZM808.8 604V580.96H785.76V604H808.8ZM783.2 604V580.96H760.16V604H783.2ZM757.6 604V580.96H734.56V604H757.6ZM732 604V580.96H708.96V604H732ZM708.96 578.4H732V555.36H708.96V578.4ZM734.56 578.4H757.6V555.36H734.56V578.4ZM760.16 578.4H783.2V555.36H760.16V578.4ZM785.76 578.4H808.8V555.36H785.76V578.4ZM811.36 578.4H834.4V555.36H811.36V578.4ZM836.96 578.4H860V555.36H836.96V578.4ZM862.56 578.4H885.6V555.36H862.56V578.4ZM888.16 578.4H911.2V555.36H888.16V578.4ZM911.2 552.8V529.76H888.16V552.8H911.2ZM885.6 552.8V529.76H862.56V552.8H885.6ZM860 552.8V529.76H836.96V552.8H860ZM834.4 552.8V529.76H811.36V552.8H834.4ZM808.8 552.8V529.76H785.76V552.8H808.8ZM783.2 552.8V529.76H760.16V552.8H783.2ZM757.6 552.8V529.76H734.56V552.8H757.6ZM732 552.8V529.76H708.96V552.8H732ZM708.96 527.2H732V504.16H708.96V527.2ZM734.56 527.2H757.6V504.16H734.56V527.2ZM760.16 527.2H783.2V504.16H760.16V527.2ZM785.76 527.2H808.8V504.16H785.76V527.2ZM811.36 527.2H834.4V504.16H811.36V527.2ZM836.96 527.2H860V504.16H836.96V527.2ZM862.56 527.2H885.6V504.16H862.56V527.2ZM888.16 527.2H911.2V504.16H888.16V527.2ZM911.2 501.6V478.56H888.16V501.6H911.2ZM885.6 501.6V478.56H862.56V501.6H885.6ZM860 501.6V478.56H836.96V501.6H860ZM834.4 501.6V478.56H811.36V501.6H834.4ZM808.8 501.6V478.56H785.76V501.6H808.8ZM783.2 501.6V478.56H760.16V501.6H783.2ZM757.6 501.6V478.56H734.56V501.6H757.6ZM732 501.6V478.56H708.96V501.6H732ZM708.96 476H732V452.96H708.96V476ZM734.56 476H757.6V452.96H734.56V476ZM760.16 476H783.2V452.96H760.16V476ZM785.76 476H808.8V452.96H785.76V476ZM811.36 476H834.4V452.96H811.36V476ZM836.96 476H860V452.96H836.96V476ZM862.56 476H885.6V452.96H862.56V476ZM888.16 476H911.2V452.96H888.16V476Z" fill="#EAF0F7" fill-opacity="0.4"/>
<path fill-rule="evenodd" clip-rule="evenodd" d="M683.36 424.8V412H680.8V424.8H668V427.36H680.8V668H683.36V427.36H924V424.8H683.36Z" fill="#EAF0F7" fill-opacity="0.4"/>
</g>
<g clip-path="url(#clip15_46_2390)">
<rect width="256" height="256" transform="translate(924 412)" fill="#4CAF50"/>
<path opacity="0.5" fill-rule="evenodd" clip-rule="evenodd" d="M1169.76 655.2H1180V657.76H1169.76V668H1167.2V657.76H1144.16V668H1141.6V657.76H1118.56V668H1116V657.76H1092.96V668H1090.4V657.76H1067.36V668H1064.8V657.76H1041.76V668H1039.2V657.76H1016.16V668H1013.6V657.76H990.56V668H988V657.76H964.96V668H962.4V657.76H924V655.2H962.4V632.16H924V629.6H962.4V606.56H924V604H962.4V580.96H924V578.4H962.4V555.36H924V552.8H962.4V529.76H924V527.2H962.4V504.16H924V501.6H962.4V478.56H924V476H962.4V452.96H924V450.4H962.4V412H964.96V450.4H988V412H990.56V450.4H1013.6V412H1016.16V450.4H1039.2V412H1041.76V450.4H1064.8V412H1067.36V450.4H1090.4V412H1092.96V450.4H1116V412H1118.56V450.4H1141.6V412H1144.16V450.4H1167.2V412H1169.76V450.4H1180V452.96H1169.76V476H1180V478.56H1169.76V501.6H1180V504.16H1169.76V527.2H1180V529.76H1169.76V552.8H1180V555.36H1169.76V578.4H1180V580.96H1169.76V604H1180V606.56H1169.76V629.6H1180V632.16H1169.76V655.2ZM1167.2 655.2V632.16H1144.16V655.2H1167.2ZM1141.6 655.2V632.16H1118.56V655.2H1141.6ZM1116 655.2V632.16H1092.96V655.2H1116ZM1090.4 655.2V632.16H1067.36V655.2H1090.4ZM1064.8 655.2V632.16H1041.76V655.2H1064.8ZM1039.2 655.2V632.16H1016.16V655.2H1039.2ZM1013.6 655.2V632.16H990.56V655.2H1013.6ZM988 655.2V632.16H964.96V655.2H988ZM964.96 629.6H988V606.56H964.96V629.6ZM990.56 629.6H1013.6V606.56H990.56V629.6ZM1016.16 629.6H1039.2V606.56H1016.16V629.6ZM1041.76 629.6H1064.8V606.56H1041.76V629.6ZM1067.36 629.6H1090.4V606.56H1067.36V629.6ZM1092.96 629.6H1116V606.56H1092.96V629.6ZM1118.56 629.6H1141.6V606.56H1118.56V629.6ZM1144.16 629.6H1167.2V606.56H1144.16V629.6ZM1167.2 604V580.96H1144.16V604H1167.2ZM1141.6 604V580.96H1118.56V604H1141.6ZM1116 604V580.96H1092.96V604H1116ZM1090.4 604V580.96H1067.36V604H1090.4ZM1064.8 604V580.96H1041.76V604H1064.8ZM1039.2 604V580.96H1016.16V604H1039.2ZM1013.6 604V580.96H990.56V604H1013.6ZM988 604V580.96H964.96V604H988ZM964.96 578.4H988V555.36H964.96V578.4ZM990.56 578.4H1013.6V555.36H990.56V578.4ZM1016.16 578.4H1039.2V555.36H1016.16V578.4ZM1041.76 578.4H1064.8V555.36H1041.76V578.4ZM1067.36 578.4H1090.4V555.36H1067.36V578.4ZM1092.96 578.4H1116V555.36H1092.96V578.4ZM1118.56 578.4H1141.6V555.36H1118.56V578.4ZM1144.16 578.4H1167.2V555.36H1144.16V578.4ZM1167.2 552.8V529.76H1144.16V552.8H1167.2ZM1141.6 552.8V529.76H1118.56V552.8H1141.6ZM1116 552.8V529.76H1092.96V552.8H1116ZM1090.4 552.8V529.76H1067.36V552.8H1090.4ZM1064.8 552.8V529.76H1041.76V552.8H1064.8ZM1039.2 552.8V529.76H1016.16V552.8H1039.2ZM1013.6 552.8V529.76H990.56V552.8H1013.6ZM988 552.8V529.76H964.96V552.8H988ZM964.96 527.2H988V504.16H964.96V527.2ZM990.56 527.2H1013.6V504.16H990.56V527.2ZM1016.16 527.2H1039.2V504.16H1016.16V527.2ZM1041.76 527.2H1064.8V504.16H1041.76V527.2ZM1067.36 527.2H1090.4V504.16H1067.36V527.2ZM1092.96 527.2H1116V504.16H1092.96V527.2ZM1118.56 527.2H1141.6V504.16H1118.56V527.2ZM1144.16 527.2H1167.2V504.16H1144.16V527.2ZM1167.2 501.6V478.56H1144.16V501.6H1167.2ZM1141.6 501.6V478.56H1118.56V501.6H1141.6ZM1116 501.6V478.56H1092.96V501.6H1116ZM1090.4 501.6V478.56H1067.36V501.6H1090.4ZM1064.8 501.6V478.56H1041.76V501.6H1064.8ZM1039.2 501.6V478.56H1016.16V501.6H1039.2ZM1013.6 501.6V478.56H990.56V501.6H1013.6ZM988 501.6V478.56H964.96V501.6H988ZM964.96 476H988V452.96H964.96V476ZM990.56 476H1013.6V452.96H990.56V476ZM1016.16 476H1039.2V452.96H1016.16V476ZM1041.76 476H1064.8V452.96H1041.76V476ZM1067.36 476H1090.4V452.96H1067.36V476ZM1092.96 476H1116V452.96H1092.96V476ZM1118.56 476H1141.6V452.96H1118.56V476ZM1144.16 476H1167.2V452.96H1144.16V476Z" fill="#EAF0F7" fill-opacity="0.4"/>
<path fill-rule="evenodd" clip-rule="evenodd" d="M939.36 424.8V412H936.8V424.8H924V427.36H936.8V668H939.36V427.36H1180V424.8H939.36Z" fill="#EAF0F7" fill-opacity="0.4"/>
</g>
<g clip-path="url(#clip16_46_2390)">
<rect width="256" height="256" transform="translate(-100 668)" fill="#4CAF50"/>
<path opacity="0.5" fill-rule="evenodd" clip-rule="evenodd" d="M145.76 911.2H156V913.76H145.76V924H143.2V913.76H120.16V924H117.6V913.76H94.56V924H92V913.76H68.96V924H66.4V913.76H43.36V924H40.8V913.76H17.76V924H15.2V913.76H-7.84V924H-10.4V913.76H-33.44V924H-36V913.76H-59.04V924H-61.6V913.76H-100V911.2H-61.6V888.16H-100V885.6H-61.6V862.56H-100V860H-61.6V836.96H-100V834.4H-61.6V811.36H-100V808.8H-61.6V785.76H-100V783.2H-61.6V760.16H-100V757.6H-61.6V734.56H-100V732H-61.6V708.96H-100V706.4H-61.6V668H-59.04V706.4H-36V668H-33.44V706.4H-10.4V668H-7.84V706.4H15.2V668H17.76V706.4H40.8V668H43.36V706.4H66.4V668H68.96V706.4H92V668H94.56V706.4H117.6V668H120.16V706.4H143.2V668H145.76V706.4H156V708.96H145.76V732H156V734.56H145.76V757.6H156V760.16H145.76V783.2H156V785.76H145.76V808.8H156V811.36H145.76V834.4H156V836.96H145.76V860H156V862.56H145.76V885.6H156V888.16H145.76V911.2ZM143.2 911.2V888.16H120.16V911.2H143.2ZM117.6 911.2V888.16H94.56V911.2H117.6ZM92 911.2V888.16H68.96V911.2H92ZM66.4 911.2V888.16H43.36V911.2H66.4ZM40.8 911.2V888.16H17.76V911.2H40.8ZM15.2 911.2V888.16H-7.84V911.2H15.2ZM-10.4 911.2V888.16H-33.44V911.2H-10.4ZM-36 911.2V888.16H-59.04V911.2H-36ZM-59.04 885.6H-36V862.56H-59.04V885.6ZM-33.44 885.6H-10.4V862.56H-33.44V885.6ZM-7.84 885.6H15.2V862.56H-7.84V885.6ZM17.76 885.6H40.8V862.56H17.76V885.6ZM43.36 885.6H66.4V862.56H43.36V885.6ZM68.96 885.6H92V862.56H68.96V885.6ZM94.56 885.6H117.6V862.56H94.56V885.6ZM120.16 885.6H143.2V862.56H120.16V885.6ZM143.2 860V836.96H120.16V860H143.2ZM117.6 860V836.96H94.56V860H117.6ZM92 860V836.96H68.96V860H92ZM66.4 860V836.96H43.36V860H66.4ZM40.8 860V836.96H17.76V860H40.8ZM15.2 860V836.96H-7.84V860H15.2ZM-10.4 860V836.96H-33.44V860H-10.4ZM-36 860V836.96H-59.04V860H-36ZM-59.04 834.4H-36V811.36H-59.04V834.4ZM-33.44 834.4H-10.4V811.36H-33.44V834.4ZM-7.84 834.4H15.2V811.36H-7.84V834.4ZM17.76 834.4H40.8V811.36H17.76V834.4ZM43.36 834.4H66.4V811.36H43.36V834.4ZM68.96 834.4H92V811.36H68.96V834.4ZM94.56 834.4H117.6V811.36H94.56V834.4ZM120.16 834.4H143.2V811.36H120.16V834.4ZM143.2 808.8V785.76H120.16V808.8H143.2ZM117.6 808.8V785.76H94.56V808.8H117.6ZM92 808.8V785.76H68.96V808.8H92ZM66.4 808.8V785.76H43.36V808.8H66.4ZM40.8 808.8V785.76H17.76V808.8H40.8ZM15.2 808.8V785.76H-7.84V808.8H15.2ZM-10.4 808.8V785.76H-33.44V808.8H-10.4ZM-36 808.8V785.76H-59.04V808.8H-36ZM-59.04 783.2H-36V760.16H-59.04V783.2ZM-33.44 783.2H-10.4V760.16H-33.44V783.2ZM-7.84 783.2H15.2V760.16H-7.84V783.2ZM17.76 783.2H40.8V760.16H17.76V783.2ZM43.36 783.2H66.4V760.16H43.36V783.2ZM68.96 783.2H92V760.16H68.96V783.2ZM94.56 783.2H117.6V760.16H94.56V783.2ZM120.16 783.2H143.2V760.16H120.16V783.2ZM143.2 757.6V734.56H120.16V757.6H143.2ZM117.6 757.6V734.56H94.56V757.6H117.6ZM92 757.6V734.56H68.96V757.6H92ZM66.4 757.6V734.56H43.36V757.6H66.4ZM40.8 757.6V734.56H17.76V757.6H40.8ZM15.2 757.6V734.56H-7.84V757.6H15.2ZM-10.4 757.6V734.56H-33.44V757.6H-10.4ZM-36 757.6V734.56H-59.04V757.6H-36ZM-59.04 732H-36V708.96H-59.04V732ZM-33.44 732H-10.4V708.96H-33.44V732ZM-7.84 732H15.2V708.96H-7.84V732ZM17.76 732H40.8V708.96H17.76V732ZM43.36 732H66.4V708.96H43.36V732ZM68.96 732H92V708.96H68.96V732ZM94.56 732H117.6V708.96H94.56V732ZM120.16 732H143.2V708.96H120.16V732Z" fill="#EAF0F7" fill-opacity="0.4"/>
<path fill-rule="evenodd" clip-rule="evenodd" d="M-84.64 680.8V668H-87.2V680.8H-100V683.36H-87.2V924H-84.64V683.36H156V680.8H-84.64Z" fill="#EAF0F7" fill-opacity="0.4"/>
</g>
<g clip-path="url(#clip17_46_2390)">
<rect width="256" height="256" transform="translate(156 668)" fill="#4CAF50"/>
<path opacity="0.5" fill-rule="evenodd" clip-rule="evenodd" d="M401.76 911.2H412V913.76H401.76V924H399.2V913.76H376.16V924H373.6V913.76H350.56V924H348V913.76H324.96V924H322.4V913.76H299.36V924H296.8V913.76H273.76V924H271.2V913.76H248.16V924H245.6V913.76H222.56V924H220V913.76H196.96V924H194.4V913.76H156V911.2H194.4V888.16H156V885.6H194.4V862.56H156V860H194.4V836.96H156V834.4H194.4V811.36H156V808.8H194.4V785.76H156V783.2H194.4V760.16H156V757.6H194.4V734.56H156V732H194.4V708.96H156V706.4H194.4V668H196.96V706.4H220V668H222.56V706.4H245.6V668H248.16V706.4H271.2V668H273.76V706.4H296.8V668H299.36V706.4H322.4V668H324.96V706.4H348V668H350.56V706.4H373.6V668H376.16V706.4H399.2V668H401.76V706.4H412V708.96H401.76V732H412V734.56H401.76V757.6H412V760.16H401.76V783.2H412V785.76H401.76V808.8H412V811.36H401.76V834.4H412V836.96H401.76V860H412V862.56H401.76V885.6H412V888.16H401.76V911.2ZM399.2 911.2V888.16H376.16V911.2H399.2ZM373.6 911.2V888.16H350.56V911.2H373.6ZM348 911.2V888.16H324.96V911.2H348ZM322.4 911.2V888.16H299.36V911.2H322.4ZM296.8 911.2V888.16H273.76V911.2H296.8ZM271.2 911.2V888.16H248.16V911.2H271.2ZM245.6 911.2V888.16H222.56V911.2H245.6ZM220 911.2V888.16H196.96V911.2H220ZM196.96 885.6H220V862.56H196.96V885.6ZM222.56 885.6H245.6V862.56H222.56V885.6ZM248.16 885.6H271.2V862.56H248.16V885.6ZM273.76 885.6H296.8V862.56H273.76V885.6ZM299.36 885.6H322.4V862.56H299.36V885.6ZM324.96 885.6H348V862.56H324.96V885.6ZM350.56 885.6H373.6V862.56H350.56V885.6ZM376.16 885.6H399.2V862.56H376.16V885.6ZM399.2 860V836.96H376.16V860H399.2ZM373.6 860V836.96H350.56V860H373.6ZM348 860V836.96H324.96V860H348ZM322.4 860V836.96H299.36V860H322.4ZM296.8 860V836.96H273.76V860H296.8ZM271.2 860V836.96H248.16V860H271.2ZM245.6 860V836.96H222.56V860H245.6ZM220 860V836.96H196.96V860H220ZM196.96 834.4H220V811.36H196.96V834.4ZM222.56 834.4H245.6V811.36H222.56V834.4ZM248.16 834.4H271.2V811.36H248.16V834.4ZM273.76 834.4H296.8V811.36H273.76V834.4ZM299.36 834.4H322.4V811.36H299.36V834.4ZM324.96 834.4H348V811.36H324.96V834.4ZM350.56 834.4H373.6V811.36H350.56V834.4ZM376.16 834.4H399.2V811.36H376.16V834.4ZM399.2 808.8V785.76H376.16V808.8H399.2ZM373.6 808.8V785.76H350.56V808.8H373.6ZM348 808.8V785.76H324.96V808.8H348ZM322.4 808.8V785.76H299.36V808.8H322.4ZM296.8 808.8V785.76H273.76V808.8H296.8ZM271.2 808.8V785.76H248.16V808.8H271.2ZM245.6 808.8V785.76H222.56V808.8H245.6ZM220 808.8V785.76H196.96V808.8H220ZM196.96 783.2H220V760.16H196.96V783.2ZM222.56 783.2H245.6V760.16H222.56V783.2ZM248.16 783.2H271.2V760.16H248.16V783.2ZM273.76 783.2H296.8V760.16H273.76V783.2ZM299.36 783.2H322.4V760.16H299.36V783.2ZM324.96 783.2H348V760.16H324.96V783.2ZM350.56 783.2H373.6V760.16H350.56V783.2ZM376.16 783.2H399.2V760.16H376.16V783.2ZM399.2 757.6V734.56H376.16V757.6H399.2ZM373.6 757.6V734.56H350.56V757.6H373.6ZM348 757.6V734.56H324.96V757.6H348ZM322.4 757.6V734.56H299.36V757.6H322.4ZM296.8 757.6V734.56H273.76V757.6H296.8ZM271.2 757.6V734.56H248.16V757.6H271.2ZM245.6 757.6V734.56H222.56V757.6H245.6ZM220 757.6V734.56H196.96V757.6H220ZM196.96 732H220V708.96H196.96V732ZM222.56 732H245.6V708.96H222.56V732ZM248.16 732H271.2V708.96H248.16V732ZM273.76 732H296.8V708.96H273.76V732ZM299.36 732H322.4V708.96H299.36V732ZM324.96 732H348V708.96H324.96V732ZM350.56 732H373.6V708.96H350.56V732ZM376.16 732H399.2V708.96H376.16V732Z" fill="#EAF0F7" fill-opacity="0.4"/>
<path fill-rule="evenodd" clip-rule="evenodd" d="M171.36 680.8V668H168.8V680.8H156V683.36H168.8V924H171.36V683.36H412V680.8H171.36Z" fill="#EAF0F7" fill-opacity="0.4"/>
</g>
<g clip-path="url(#clip18_46_2390)">
<rect width="256" height="256" transform="translate(412 668)" fill="#4CAF50"/>
<path opacity="0.5" fill-rule="evenodd" clip-rule="evenodd" d="M657.76 911.2H668V913.76H657.76V924H655.2V913.76H632.16V924H629.6V913.76H606.56V924H604V913.76H580.96V924H578.4V913.76H555.36V924H552.8V913.76H529.76V924H527.2V913.76H504.16V924H501.6V913.76H478.56V924H476V913.76H452.96V924H450.4V913.76H412V911.2H450.4V888.16H412V885.6H450.4V862.56H412V860H450.4V836.96H412V834.4H450.4V811.36H412V808.8H450.4V785.76H412V783.2H450.4V760.16H412V757.6H450.4V734.56H412V732H450.4V708.96H412V706.4H450.4V668H452.96V706.4H476V668H478.56V706.4H501.6V668H504.16V706.4H527.2V668H529.76V706.4H552.8V668H555.36V706.4H578.4V668H580.96V706.4H604V668H606.56V706.4H629.6V668H632.16V706.4H655.2V668H657.76V706.4H668V708.96H657.76V732H668V734.56H657.76V757.6H668V760.16H657.76V783.2H668V785.76H657.76V808.8H668V811.36H657.76V834.4H668V836.96H657.76V860H668V862.56H657.76V885.6H668V888.16H657.76V911.2ZM655.2 911.2V888.16H632.16V911.2H655.2ZM629.6 911.2V888.16H606.56V911.2H629.6ZM604 911.2V888.16H580.96V911.2H604ZM578.4 911.2V888.16H555.36V911.2H578.4ZM552.8 911.2V888.16H529.76V911.2H552.8ZM527.2 911.2V888.16H504.16V911.2H527.2ZM501.6 911.2V888.16H478.56V911.2H501.6ZM476 911.2V888.16H452.96V911.2H476ZM452.96 885.6H476V862.56H452.96V885.6ZM478.56 885.6H501.6V862.56H478.56V885.6ZM504.16 885.6H527.2V862.56H504.16V885.6ZM529.76 885.6H552.8V862.56H529.76V885.6ZM555.36 885.6H578.4V862.56H555.36V885.6ZM580.96 885.6H604V862.56H580.96V885.6ZM606.56 885.6H629.6V862.56H606.56V885.6ZM632.16 885.6H655.2V862.56H632.16V885.6ZM655.2 860V836.96H632.16V860H655.2ZM629.6 860V836.96H606.56V860H629.6ZM604 860V836.96H580.96V860H604ZM578.4 860V836.96H555.36V860H578.4ZM552.8 860V836.96H529.76V860H552.8ZM527.2 860V836.96H504.16V860H527.2ZM501.6 860V836.96H478.56V860H501.6ZM476 860V836.96H452.96V860H476ZM452.96 834.4H476V811.36H452.96V834.4ZM478.56 834.4H501.6V811.36H478.56V834.4ZM504.16 834.4H527.2V811.36H504.16V834.4ZM529.76 834.4H552.8V811.36H529.76V834.4ZM555.36 834.4H578.4V811.36H555.36V834.4ZM580.96 834.4H604V811.36H580.96V834.4ZM606.56 834.4H629.6V811.36H606.56V834.4ZM632.16 834.4H655.2V811.36H632.16V834.4ZM655.2 808.8V785.76H632.16V808.8H655.2ZM629.6 808.8V785.76H606.56V808.8H629.6ZM604 808.8V785.76H580.96V808.8H604ZM578.4 808.8V785.76H555.36V808.8H578.4ZM552.8 808.8V785.76H529.76V808.8H552.8ZM527.2 808.8V785.76H504.16V808.8H527.2ZM501.6 808.8V785.76H478.56V808.8H501.6ZM476 808.8V785.76H452.96V808.8H476ZM452.96 783.2H476V760.16H452.96V783.2ZM478.56 783.2H501.6V760.16H478.56V783.2ZM504.16 783.2H527.2V760.16H504.16V783.2ZM529.76 783.2H552.8V760.16H529.76V783.2ZM555.36 783.2H578.4V760.16H555.36V783.2ZM580.96 783.2H604V760.16H580.96V783.2ZM606.56 783.2H629.6V760.16H606.56V783.2ZM632.16 783.2H655.2V760.16H632.16V783.2ZM655.2 757.6V734.56H632.16V757.6H655.2ZM629.6 757.6V734.56H606.56V757.6H629.6ZM604 757.6V734.56H580.96V757.6H604ZM578.4 757.6V734.56H555.36V757.6H578.4ZM552.8 757.6V734.56H529.76V757.6H552.8ZM527.2 757.6V734.56H504.16V757.6H527.2ZM501.6 757.6V734.56H478.56V757.6H501.6ZM476 757.6V734.56H452.96V757.6H476ZM452.96 732H476V708.96H452.96V732ZM478.56 732H501.6V708.96H478.56V732ZM504.16 732H527.2V708.96H504.16V732ZM529.76 732H552.8V708.96H529.76V732ZM555.36 732H578.4V708.96H555.36V732ZM580.96 732H604V708.96H580.96V732ZM606.56 732H629.6V708.96H606.56V732ZM632.16 732H655.2V708.96H632.16V732Z" fill="#EAF0F7" fill-opacity="0.4"/>
<path fill-rule="evenodd" clip-rule="evenodd" d="M427.36 680.8V668H424.8V680.8H412V683.36H424.8V924H427.36V683.36H668V680.8H427.36Z" fill="#EAF0F7" fill-opacity="0.4"/>
</g>
<g clip-path="url(#clip19_46_2390)">
<rect width="256" height="256" transform="translate(668 668)" fill="#4CAF50"/>
<path opacity="0.5" fill-rule="evenodd" clip-rule="evenodd" d="M913.76 911.2H924V913.76H913.76V924H911.2V913.76H888.16V924H885.6V913.76H862.56V924H860V913.76H836.96V924H834.4V913.76H811.36V924H808.8V913.76H785.76V924H783.2V913.76H760.16V924H757.6V913.76H734.56V924H732V913.76H708.96V924H706.4V913.76H668V911.2H706.4V888.16H668V885.6H706.4V862.56H668V860H706.4V836.96H668V834.4H706.4V811.36H668V808.8H706.4V785.76H668V783.2H706.4V760.16H668V757.6H706.4V734.56H668V732H706.4V708.96H668V706.4H706.4V668H708.96V706.4H732V668H734.56V706.4H757.6V668H760.16V706.4H783.2V668H785.76V706.4H808.8V668H811.36V706.4H834.4V668H836.96V706.4H860V668H862.56V706.4H885.6V668H888.16V706.4H911.2V668H913.76V706.4H924V708.96H913.76V732H924V734.56H913.76V757.6H924V760.16H913.76V783.2H924V785.76H913.76V808.8H924V811.36H913.76V834.4H924V836.96H913.76V860H924V862.56H913.76V885.6H924V888.16H913.76V911.2ZM911.2 911.2V888.16H888.16V911.2H911.2ZM885.6 911.2V888.16H862.56V911.2H885.6ZM860 911.2V888.16H836.96V911.2H860ZM834.4 911.2V888.16H811.36V911.2H834.4ZM808.8 911.2V888.16H785.76V911.2H808.8ZM783.2 911.2V888.16H760.16V911.2H783.2ZM757.6 911.2V888.16H734.56V911.2H757.6ZM732 911.2V888.16H708.96V911.2H732ZM708.96 885.6H732V862.56H708.96V885.6ZM734.56 885.6H757.6V862.56H734.56V885.6ZM760.16 885.6H783.2V862.56H760.16V885.6ZM785.76 885.6H808.8V862.56H785.76V885.6ZM811.36 885.6H834.4V862.56H811.36V885.6ZM836.96 885.6H860V862.56H836.96V885.6ZM862.56 885.6H885.6V862.56H862.56V885.6ZM888.16 885.6H911.2V862.56H888.16V885.6ZM911.2 860V836.96H888.16V860H911.2ZM885.6 860V836.96H862.56V860H885.6ZM860 860V836.96H836.96V860H860ZM834.4 860V836.96H811.36V860H834.4ZM808.8 860V836.96H785.76V860H808.8ZM783.2 860V836.96H760.16V860H783.2ZM757.6 860V836.96H734.56V860H757.6ZM732 860V836.96H708.96V860H732ZM708.96 834.4H732V811.36H708.96V834.4ZM734.56 834.4H757.6V811.36H734.56V834.4ZM760.16 834.4H783.2V811.36H760.16V834.4ZM785.76 834.4H808.8V811.36H785.76V834.4ZM811.36 834.4H834.4V811.36H811.36V834.4ZM836.96 834.4H860V811.36H836.96V834.4ZM862.56 834.4H885.6V811.36H862.56V834.4ZM888.16 834.4H911.2V811.36H888.16V834.4ZM911.2 808.8V785.76H888.16V808.8H911.2ZM885.6 808.8V785.76H862.56V808.8H885.6ZM860 808.8V785.76H836.96V808.8H860ZM834.4 808.8V785.76H811.36V808.8H834.4ZM808.8 808.8V785.76H785.76V808.8H808.8ZM783.2 808.8V785.76H760.16V808.8H783.2ZM757.6 808.8V785.76H734.56V808.8H757.6ZM732 808.8V785.76H708.96V808.8H732ZM708.96 783.2H732V760.16H708.96V783.2ZM734.56 783.2H757.6V760.16H734.56V783.2ZM760.16 783.2H783.2V760.16H760.16V783.2ZM785.76 783.2H808.8V760.16H785.76V783.2ZM811.36 783.2H834.4V760.16H811.36V783.2ZM836.96 783.2H860V760.16H836.96V783.2ZM862.56 783.2H885.6V760.16H862.56V783.2ZM888.16 783.2H911.2V760.16H888.16V783.2ZM911.2 757.6V734.56H888.16V757.6H911.2ZM885.6 757.6V734.56H862.56V757.6H885.6ZM860 757.6V734.56H836.96V757.6H860ZM834.4 757.6V734.56H811.36V757.6H834.4ZM808.8 757.6V734.56H785.76V757.6H808.8ZM783.2 757.6V734.56H760.16V757.6H783.2ZM757.6 757.6V734.56H734.56V757.6H757.6ZM732 757.6V734.56H708.96V757.6H732ZM708.96 732H732V708.96H708.96V732ZM734.56 732H757.6V708.96H734.56V732ZM760.16 732H783.2V708.96H760.16V732ZM785.76 732H808.8V708.96H785.76V732ZM811.36 732H834.4V708.96H811.36V732ZM836.96 732H860V708.96H836.96V732ZM862.56 732H885.6V708.96H862.56V732ZM888.16 732H911.2V708.96H888.16V732Z" fill="#EAF0F7" fill-opacity="0.4"/>
<path fill-rule="evenodd" clip-rule="evenodd" d="M683.36 680.8V668H680.8V680.8H668V683.36H680.8V924H683.36V683.36H924V680.8H683.36Z" fill="#EAF0F7" fill-opacity="0.4"/>
</g>
<g clip-path="url(#clip20_46_2390)">
<rect width="256" height="256" transform="translate(924 668)" fill="#4CAF50"/>
<path opacity="0.5" fill-rule="evenodd" clip-rule="evenodd" d="M1169.76 911.2H1180V913.76H1169.76V924H1167.2V913.76H1144.16V924H1141.6V913.76H1118.56V924H1116V913.76H1092.96V924H1090.4V913.76H1067.36V924H1064.8V913.76H1041.76V924H1039.2V913.76H1016.16V924H1013.6V913.76H990.56V924H988V913.76H964.96V924H962.4V913.76H924V911.2H962.4V888.16H924V885.6H962.4V862.56H924V860H962.4V836.96H924V834.4H962.4V811.36H924V808.8H962.4V785.76H924V783.2H962.4V760.16H924V757.6H962.4V734.56H924V732H962.4V708.96H924V706.4H962.4V668H964.96V706.4H988V668H990.56V706.4H1013.6V668H1016.16V706.4H1039.2V668H1041.76V706.4H1064.8V668H1067.36V706.4H1090.4V668H1092.96V706.4H1116V668H1118.56V706.4H1141.6V668H1144.16V706.4H1167.2V668H1169.76V706.4H1180V708.96H1169.76V732H1180V734.56H1169.76V757.6H1180V760.16H1169.76V783.2H1180V785.76H1169.76V808.8H1180V811.36H1169.76V834.4H1180V836.96H1169.76V860H1180V862.56H1169.76V885.6H1180V888.16H1169.76V911.2ZM1167.2 911.2V888.16H1144.16V911.2H1167.2ZM1141.6 911.2V888.16H1118.56V911.2H1141.6ZM1116 911.2V888.16H1092.96V911.2H1116ZM1090.4 911.2V888.16H1067.36V911.2H1090.4ZM1064.8 911.2V888.16H1041.76V911.2H1064.8ZM1039.2 911.2V888.16H1016.16V911.2H1039.2ZM1013.6 911.2V888.16H990.56V911.2H1013.6ZM988 911.2V888.16H964.96V911.2H988ZM964.96 885.6H988V862.56H964.96V885.6ZM990.56 885.6H1013.6V862.56H990.56V885.6ZM1016.16 885.6H1039.2V862.56H1016.16V885.6ZM1041.76 885.6H1064.8V862.56H1041.76V885.6ZM1067.36 885.6H1090.4V862.56H1067.36V885.6ZM1092.96 885.6H1116V862.56H1092.96V885.6ZM1118.56 885.6H1141.6V862.56H1118.56V885.6ZM1144.16 885.6H1167.2V862.56H1144.16V885.6ZM1167.2 860V836.96H1144.16V860H1167.2ZM1141.6 860V836.96H1118.56V860H1141.6ZM1116 860V836.96H1092.96V860H1116ZM1090.4 860V836.96H1067.36V860H1090.4ZM1064.8 860V836.96H1041.76V860H1064.8ZM1039.2 860V836.96H1016.16V860H1039.2ZM1013.6 860V836.96H990.56V860H1013.6ZM988 860V836.96H964.96V860H988ZM964.96 834.4H988V811.36H964.96V834.4ZM990.56 834.4H1013.6V811.36H990.56V834.4ZM1016.16 834.4H1039.2V811.36H1016.16V834.4ZM1041.76 834.4H1064.8V811.36H1041.76V834.4ZM1067.36 834.4H1090.4V811.36H1067.36V834.4ZM1092.96 834.4H1116V811.36H1092.96V834.4ZM1118.56 834.4H1141.6V811.36H1118.56V834.4ZM1144.16 834.4H1167.2V811.36H1144.16V834.4ZM1167.2 808.8V785.76H1144.16V808.8H1167.2ZM1141.6 808.8V785.76H1118.56V808.8H1141.6ZM1116 808.8V785.76H1092.96V808.8H1116ZM1090.4 808.8V785.76H1067.36V808.8H1090.4ZM1064.8 808.8V785.76H1041.76V808.8H1064.8ZM1039.2 808.8V785.76H1016.16V808.8H1039.2ZM1013.6 808.8V785.76H990.56V808.8H1013.6ZM988 808.8V785.76H964.96V808.8H988ZM964.96 783.2H988V760.16H964.96V783.2ZM990.56 783.2H1013.6V760.16H990.56V783.2ZM1016.16 783.2H1039.2V760.16H1016.16V783.2ZM1041.76 783.2H1064.8V760.16H1041.76V783.2ZM1067.36 783.2H1090.4V760.16H1067.36V783.2ZM1092.96 783.2H1116V760.16H1092.96V783.2ZM1118.56 783.2H1141.6V760.16H1118.56V783.2ZM1144.16 783.2H1167.2V760.16H1144.16V783.2ZM1167.2 757.6V734.56H1144.16V757.6H1167.2ZM1141.6 757.6V734.56H1118.56V757.6H1141.6ZM1116 757.6V734.56H1092.96V757.6H1116ZM1090.4 757.6V734.56H1067.36V757.6H1090.4ZM1064.8 757.6V734.56H1041.76V757.6H1064.8ZM1039.2 757.6V734.56H1016.16V757.6H1039.2ZM1013.6 757.6V734.56H990.56V757.6H1013.6ZM988 757.6V734.56H964.96V757.6H988ZM964.96 732H988V708.96H964.96V732ZM990.56 732H1013.6V708.96H990.56V732ZM1016.16 732H1039.2V708.96H1016.16V732ZM1041.76 732H1064.8V708.96H1041.76V732ZM1067.36 732H1090.4V708.96H1067.36V732ZM1092.96 732H1116V708.96H1092.96V732ZM1118.56 732H1141.6V708.96H1118.56V732ZM1144.16 732H1167.2V708.96H1144.16V732Z" fill="#EAF0F7" fill-opacity="0.4"/>
<path fill-rule="evenodd" clip-rule="evenodd" d="M939.36 680.8V668H936.8V680.8H924V683.36H936.8V924H939.36V683.36H1180V680.8H939.36Z" fill="#EAF0F7" fill-opacity="0.4"/>
</g>
<g clip-path="url(#clip21_46_2390)">
<rect width="256" height="256" transform="translate(-100 924)" fill="#4CAF50"/>
<path opacity="0.5" fill-rule="evenodd" clip-rule="evenodd" d="M145.76 1167.2H156V1169.76H145.76V1180H143.2V1169.76H120.16V1180H117.6V1169.76H94.56V1180H92V1169.76H68.96V1180H66.4V1169.76H43.36V1180H40.8V1169.76H17.76V1180H15.2V1169.76H-7.84V1180H-10.4V1169.76H-33.44V1180H-36V1169.76H-59.04V1180H-61.6V1169.76H-100V1167.2H-61.6V1144.16H-100V1141.6H-61.6V1118.56H-100V1116H-61.6V1092.96H-100V1090.4H-61.6V1067.36H-100V1064.8H-61.6V1041.76H-100V1039.2H-61.6V1016.16H-100V1013.6H-61.6V990.56H-100V988H-61.6V964.96H-100V962.4H-61.6V924H-59.04V962.4H-36V924H-33.44V962.4H-10.4V924H-7.84V962.4H15.2V924H17.76V962.4H40.8V924H43.36V962.4H66.4V924H68.96V962.4H92V924H94.56V962.4H117.6V924H120.16V962.4H143.2V924H145.76V962.4H156V964.96H145.76V988H156V990.56H145.76V1013.6H156V1016.16H145.76V1039.2H156V1041.76H145.76V1064.8H156V1067.36H145.76V1090.4H156V1092.96H145.76V1116H156V1118.56H145.76V1141.6H156V1144.16H145.76V1167.2ZM143.2 1167.2V1144.16H120.16V1167.2H143.2ZM117.6 1167.2V1144.16H94.56V1167.2H117.6ZM92 1167.2V1144.16H68.96V1167.2H92ZM66.4 1167.2V1144.16H43.36V1167.2H66.4ZM40.8 1167.2V1144.16H17.76V1167.2H40.8ZM15.2 1167.2V1144.16H-7.84V1167.2H15.2ZM-10.4 1167.2V1144.16H-33.44V1167.2H-10.4ZM-36 1167.2V1144.16H-59.04V1167.2H-36ZM-59.04 1141.6H-36V1118.56H-59.04V1141.6ZM-33.44 1141.6H-10.4V1118.56H-33.44V1141.6ZM-7.84 1141.6H15.2V1118.56H-7.84V1141.6ZM17.76 1141.6H40.8V1118.56H17.76V1141.6ZM43.36 1141.6H66.4V1118.56H43.36V1141.6ZM68.96 1141.6H92V1118.56H68.96V1141.6ZM94.56 1141.6H117.6V1118.56H94.56V1141.6ZM120.16 1141.6H143.2V1118.56H120.16V1141.6ZM143.2 1116V1092.96H120.16V1116H143.2ZM117.6 1116V1092.96H94.56V1116H117.6ZM92 1116V1092.96H68.96V1116H92ZM66.4 1116V1092.96H43.36V1116H66.4ZM40.8 1116V1092.96H17.76V1116H40.8ZM15.2 1116V1092.96H-7.84V1116H15.2ZM-10.4 1116V1092.96H-33.44V1116H-10.4ZM-36 1116V1092.96H-59.04V1116H-36ZM-59.04 1090.4H-36V1067.36H-59.04V1090.4ZM-33.44 1090.4H-10.4V1067.36H-33.44V1090.4ZM-7.84 1090.4H15.2V1067.36H-7.84V1090.4ZM17.76 1090.4H40.8V1067.36H17.76V1090.4ZM43.36 1090.4H66.4V1067.36H43.36V1090.4ZM68.96 1090.4H92V1067.36H68.96V1090.4ZM94.56 1090.4H117.6V1067.36H94.56V1090.4ZM120.16 1090.4H143.2V1067.36H120.16V1090.4ZM143.2 1064.8V1041.76H120.16V1064.8H143.2ZM117.6 1064.8V1041.76H94.56V1064.8H117.6ZM92 1064.8V1041.76H68.96V1064.8H92ZM66.4 1064.8V1041.76H43.36V1064.8H66.4ZM40.8 1064.8V1041.76H17.76V1064.8H40.8ZM15.2 1064.8V1041.76H-7.84V1064.8H15.2ZM-10.4 1064.8V1041.76H-33.44V1064.8H-10.4ZM-36 1064.8V1041.76H-59.04V1064.8H-36ZM-59.04 1039.2H-36V1016.16H-59.04V1039.2ZM-33.44 1039.2H-10.4V1016.16H-33.44V1039.2ZM-7.84 1039.2H15.2V1016.16H-7.84V1039.2ZM17.76 1039.2H40.8V1016.16H17.76V1039.2ZM43.36 1039.2H66.4V1016.16H43.36V1039.2ZM68.96 1039.2H92V1016.16H68.96V1039.2ZM94.56 1039.2H117.6V1016.16H94.56V1039.2ZM120.16 1039.2H143.2V1016.16H120.16V1039.2ZM143.2 1013.6V990.56H120.16V1013.6H143.2ZM117.6 1013.6V990.56H94.56V1013.6H117.6ZM92 1013.6V990.56H68.96V1013.6H92ZM66.4 1013.6V990.56H43.36V1013.6H66.4ZM40.8 1013.6V990.56H17.76V1013.6H40.8ZM15.2 1013.6V990.56H-7.84V1013.6H15.2ZM-10.4 1013.6V990.56H-33.44V1013.6H-10.4ZM-36 1013.6V990.56H-59.04V1013.6H-36ZM-59.04 988H-36V964.96H-59.04V988ZM-33.44 988H-10.4V964.96H-33.44V988ZM-7.84 988H15.2V964.96H-7.84V988ZM17.76 988H40.8V964.96H17.76V988ZM43.36 988H66.4V964.96H43.36V988ZM68.96 988H92V964.96H68.96V988ZM94.56 988H117.6V964.96H94.56V988ZM120.16 988H143.2V964.96H120.16V988Z" fill="#EAF0F7" fill-opacity="0.4"/>
<path fill-rule="evenodd" clip-rule="evenodd" d="M-84.64 936.8V924H-87.2V936.8H-100V939.36H-87.2V1180H-84.64V939.36H156V936.8H-84.64Z" fill="#EAF0F7" fill-opacity="0.4"/>
</g>
<g clip-path="url(#clip22_46_2390)">
<rect width="256" height="256" transform="translate(156 924)" fill="#4CAF50"/>
<path opacity="0.5" fill-rule="evenodd" clip-rule="evenodd" d="M401.76 1167.2H412V1169.76H401.76V1180H399.2V1169.76H376.16V1180H373.6V1169.76H350.56V1180H348V1169.76H324.96V1180H322.4V1169.76H299.36V1180H296.8V1169.76H273.76V1180H271.2V1169.76H248.16V1180H245.6V1169.76H222.56V1180H220V1169.76H196.96V1180H194.4V1169.76H156V1167.2H194.4V1144.16H156V1141.6H194.4V1118.56H156V1116H194.4V1092.96H156V1090.4H194.4V1067.36H156V1064.8H194.4V1041.76H156V1039.2H194.4V1016.16H156V1013.6H194.4V990.56H156V988H194.4V964.96H156V962.4H194.4V924H196.96V962.4H220V924H222.56V962.4H245.6V924H248.16V962.4H271.2V924H273.76V962.4H296.8V924H299.36V962.4H322.4V924H324.96V962.4H348V924H350.56V962.4H373.6V924H376.16V962.4H399.2V924H401.76V962.4H412V964.96H401.76V988H412V990.56H401.76V1013.6H412V1016.16H401.76V1039.2H412V1041.76H401.76V1064.8H412V1067.36H401.76V1090.4H412V1092.96H401.76V1116H412V1118.56H401.76V1141.6H412V1144.16H401.76V1167.2ZM399.2 1167.2V1144.16H376.16V1167.2H399.2ZM373.6 1167.2V1144.16H350.56V1167.2H373.6ZM348 1167.2V1144.16H324.96V1167.2H348ZM322.4 1167.2V1144.16H299.36V1167.2H322.4ZM296.8 1167.2V1144.16H273.76V1167.2H296.8ZM271.2 1167.2V1144.16H248.16V1167.2H271.2ZM245.6 1167.2V1144.16H222.56V1167.2H245.6ZM220 1167.2V1144.16H196.96V1167.2H220ZM196.96 1141.6H220V1118.56H196.96V1141.6ZM222.56 1141.6H245.6V1118.56H222.56V1141.6ZM248.16 1141.6H271.2V1118.56H248.16V1141.6ZM273.76 1141.6H296.8V1118.56H273.76V1141.6ZM299.36 1141.6H322.4V1118.56H299.36V1141.6ZM324.96 1141.6H348V1118.56H324.96V1141.6ZM350.56 1141.6H373.6V1118.56H350.56V1141.6ZM376.16 1141.6H399.2V1118.56H376.16V1141.6ZM399.2 1116V1092.96H376.16V1116H399.2ZM373.6 1116V1092.96H350.56V1116H373.6ZM348 1116V1092.96H324.96V1116H348ZM322.4 1116V1092.96H299.36V1116H322.4ZM296.8 1116V1092.96H273.76V1116H296.8ZM271.2 1116V1092.96H248.16V1116H271.2ZM245.6 1116V1092.96H222.56V1116H245.6ZM220 1116V1092.96H196.96V1116H220ZM196.96 1090.4H220V1067.36H196.96V1090.4ZM222.56 1090.4H245.6V1067.36H222.56V1090.4ZM248.16 1090.4H271.2V1067.36H248.16V1090.4ZM273.76 1090.4H296.8V1067.36H273.76V1090.4ZM299.36 1090.4H322.4V1067.36H299.36V1090.4ZM324.96 1090.4H348V1067.36H324.96V1090.4ZM350.56 1090.4H373.6V1067.36H350.56V1090.4ZM376.16 1090.4H399.2V1067.36H376.16V1090.4ZM399.2 1064.8V1041.76H376.16V1064.8H399.2ZM373.6 1064.8V1041.76H350.56V1064.8H373.6ZM348 1064.8V1041.76H324.96V1064.8H348ZM322.4 1064.8V1041.76H299.36V1064.8H322.4ZM296.8 1064.8V1041.76H273.76V1064.8H296.8ZM271.2 1064.8V1041.76H248.16V1064.8H271.2ZM245.6 1064.8V1041.76H222.56V1064.8H245.6ZM220 1064.8V1041.76H196.96V1064.8H220ZM196.96 1039.2H220V1016.16H196.96V1039.2ZM222.56 1039.2H245.6V1016.16H222.56V1039.2ZM248.16 1039.2H271.2V1016.16H248.16V1039.2ZM273.76 1039.2H296.8V1016.16H273.76V1039.2ZM299.36 1039.2H322.4V1016.16H299.36V1039.2ZM324.96 1039.2H348V1016.16H324.96V1039.2ZM350.56 1039.2H373.6V1016.16H350.56V1039.2ZM376.16 1039.2H399.2V1016.16H376.16V1039.2ZM399.2 1013.6V990.56H376.16V1013.6H399.2ZM373.6 1013.6V990.56H350.56V1013.6H373.6ZM348 1013.6V990.56H324.96V1013.6H348ZM322.4 1013.6V990.56H299.36V1013.6H322.4ZM296.8 1013.6V990.56H273.76V1013.6H296.8ZM271.2 1013.6V990.56H248.16V1013.6H271.2ZM245.6 1013.6V990.56H222.56V1013.6H245.6ZM220 1013.6V990.56H196.96V1013.6H220ZM196.96 988H220V964.96H196.96V988ZM222.56 988H245.6V964.96H222.56V988ZM248.16 988H271.2V964.96H248.16V988ZM273.76 988H296.8V964.96H273.76V988ZM299.36 988H322.4V964.96H299.36V988ZM324.96 988H348V964.96H324.96V988ZM350.56 988H373.6V964.96H350.56V988ZM376.16 988H399.2V964.96H376.16V988Z" fill="#EAF0F7" fill-opacity="0.4"/>
<path fill-rule="evenodd" clip-rule="evenodd" d="M171.36 936.8V924H168.8V936.8H156V939.36H168.8V1180H171.36V939.36H412V936.8H171.36Z" fill="#EAF0F7" fill-opacity="0.4"/>
</g>
<g clip-path="url(#clip23_46_2390)">
<rect width="256" height="256" transform="translate(412 924)" fill="#4CAF50"/>
<path opacity="0.5" fill-rule="evenodd" clip-rule="evenodd" d="M657.76 1167.2H668V1169.76H657.76V1180H655.2V1169.76H632.16V1180H629.6V1169.76H606.56V1180H604V1169.76H580.96V1180H578.4V1169.76H555.36V1180H552.8V1169.76H529.76V1180H527.2V1169.76H504.16V1180H501.6V1169.76H478.56V1180H476V1169.76H452.96V1180H450.4V1169.76H412V1167.2H450.4V1144.16H412V1141.6H450.4V1118.56H412V1116H450.4V1092.96H412V1090.4H450.4V1067.36H412V1064.8H450.4V1041.76H412V1039.2H450.4V1016.16H412V1013.6H450.4V990.56H412V988H450.4V964.96H412V962.4H450.4V924H452.96V962.4H476V924H478.56V962.4H501.6V924H504.16V962.4H527.2V924H529.76V962.4H552.8V924H555.36V962.4H578.4V924H580.96V962.4H604V924H606.56V962.4H629.6V924H632.16V962.4H655.2V924H657.76V962.4H668V964.96H657.76V988H668V990.56H657.76V1013.6H668V1016.16H657.76V1039.2H668V1041.76H657.76V1064.8H668V1067.36H657.76V1090.4H668V1092.96H657.76V1116H668V1118.56H657.76V1141.6H668V1144.16H657.76V1167.2ZM655.2 1167.2V1144.16H632.16V1167.2H655.2ZM629.6 1167.2V1144.16H606.56V1167.2H629.6ZM604 1167.2V1144.16H580.96V1167.2H604ZM578.4 1167.2V1144.16H555.36V1167.2H578.4ZM552.8 1167.2V1144.16H529.76V1167.2H552.8ZM527.2 1167.2V1144.16H504.16V1167.2H527.2ZM501.6 1167.2V1144.16H478.56V1167.2H501.6ZM476 1167.2V1144.16H452.96V1167.2H476ZM452.96 1141.6H476V1118.56H452.96V1141.6ZM478.56 1141.6H501.6V1118.56H478.56V1141.6ZM504.16 1141.6H527.2V1118.56H504.16V1141.6ZM529.76 1141.6H552.8V1118.56H529.76V1141.6ZM555.36 1141.6H578.4V1118.56H555.36V1141.6ZM580.96 1141.6H604V1118.56H580.96V1141.6ZM606.56 1141.6H629.6V1118.56H606.56V1141.6ZM632.16 1141.6H655.2V1118.56H632.16V1141.6ZM655.2 1116V1092.96H632.16V1116H655.2ZM629.6 1116V1092.96H606.56V1116H629.6ZM604 1116V1092.96H580.96V1116H604ZM578.4 1116V1092.96H555.36V1116H578.4ZM552.8 1116V1092.96H529.76V1116H552.8ZM527.2 1116V1092.96H504.16V1116H527.2ZM501.6 1116V1092.96H478.56V1116H501.6ZM476 1116V1092.96H452.96V1116H476ZM452.96 1090.4H476V1067.36H452.96V1090.4ZM478.56 1090.4H501.6V1067.36H478.56V1090.4ZM504.16 1090.4H527.2V1067.36H504.16V1090.4ZM529.76 1090.4H552.8V1067.36H529.76V1090.4ZM555.36 1090.4H578.4V1067.36H555.36V1090.4ZM580.96 1090.4H604V1067.36H580.96V1090.4ZM606.56 1090.4H629.6V1067.36H606.56V1090.4ZM632.16 1090.4H655.2V1067.36H632.16V1090.4ZM655.2 1064.8V1041.76H632.16V1064.8H655.2ZM629.6 1064.8V1041.76H606.56V1064.8H629.6ZM604 1064.8V1041.76H580.96V1064.8H604ZM578.4 1064.8V1041.76H555.36V1064.8H578.4ZM552.8 1064.8V1041.76H529.76V1064.8H552.8ZM527.2 1064.8V1041.76H504.16V1064.8H527.2ZM501.6 1064.8V1041.76H478.56V1064.8H501.6ZM476 1064.8V1041.76H452.96V1064.8H476ZM452.96 1039.2H476V1016.16H452.96V1039.2ZM478.56 1039.2H501.6V1016.16H478.56V1039.2ZM504.16 1039.2H527.2V1016.16H504.16V1039.2ZM529.76 1039.2H552.8V1016.16H529.76V1039.2ZM555.36 1039.2H578.4V1016.16H555.36V1039.2ZM580.96 1039.2H604V1016.16H580.96V1039.2ZM606.56 1039.2H629.6V1016.16H606.56V1039.2ZM632.16 1039.2H655.2V1016.16H632.16V1039.2ZM655.2 1013.6V990.56H632.16V1013.6H655.2ZM629.6 1013.6V990.56H606.56V1013.6H629.6ZM604 1013.6V990.56H580.96V1013.6H604ZM578.4 1013.6V990.56H555.36V1013.6H578.4ZM552.8 1013.6V990.56H529.76V1013.6H552.8ZM527.2 1013.6V990.56H504.16V1013.6H527.2ZM501.6 1013.6V990.56H478.56V1013.6H501.6ZM476 1013.6V990.56H452.96V1013.6H476ZM452.96 988H476V964.96H452.96V988ZM478.56 988H501.6V964.96H478.56V988ZM504.16 988H527.2V964.96H504.16V988ZM529.76 988H552.8V964.96H529.76V988ZM555.36 988H578.4V964.96H555.36V988ZM580.96 988H604V964.96H580.96V988ZM606.56 988H629.6V964.96H606.56V988ZM632.16 988H655.2V964.96H632.16V988Z" fill="#EAF0F7" fill-opacity="0.4"/>
<path fill-rule="evenodd" clip-rule="evenodd" d="M427.36 936.8V924H424.8V936.8H412V939.36H424.8V1180H427.36V939.36H668V936.8H427.36Z" fill="#EAF0F7" fill-opacity="0.4"/>
</g>
<g clip-path="url(#clip24_46_2390)">
<rect width="256" height="256" transform="translate(668 924)" fill="#4CAF50"/>
<path opacity="0.5" fill-rule="evenodd" clip-rule="evenodd" d="M913.76 1167.2H924V1169.76H913.76V1180H911.2V1169.76H888.16V1180H885.6V1169.76H862.56V1180H860V1169.76H836.96V1180H834.4V1169.76H811.36V1180H808.8V1169.76H785.76V1180H783.2V1169.76H760.16V1180H757.6V1169.76H734.56V1180H732V1169.76H708.96V1180H706.4V1169.76H668V1167.2H706.4V1144.16H668V1141.6H706.4V1118.56H668V1116H706.4V1092.96H668V1090.4H706.4V1067.36H668V1064.8H706.4V1041.76H668V1039.2H706.4V1016.16H668V1013.6H706.4V990.56H668V988H706.4V964.96H668V962.4H706.4V924H708.96V962.4H732V924H734.56V962.4H757.6V924H760.16V962.4H783.2V924H785.76V962.4H808.8V924H811.36V962.4H834.4V924H836.96V962.4H860V924H862.56V962.4H885.6V924H888.16V962.4H911.2V924H913.76V962.4H924V964.96H913.76V988H924V990.56H913.76V1013.6H924V1016.16H913.76V1039.2H924V1041.76H913.76V1064.8H924V1067.36H913.76V1090.4H924V1092.96H913.76V1116H924V1118.56H913.76V1141.6H924V1144.16H913.76V1167.2ZM911.2 1167.2V1144.16H888.16V1167.2H911.2ZM885.6 1167.2V1144.16H862.56V1167.2H885.6ZM860 1167.2V1144.16H836.96V1167.2H860ZM834.4 1167.2V1144.16H811.36V1167.2H834.4ZM808.8 1167.2V1144.16H785.76V1167.2H808.8ZM783.2 1167.2V1144.16H760.16V1167.2H783.2ZM757.6 1167.2V1144.16H734.56V1167.2H757.6ZM732 1167.2V1144.16H708.96V1167.2H732ZM708.96 1141.6H732V1118.56H708.96V1141.6ZM734.56 1141.6H757.6V1118.56H734.56V1141.6ZM760.16 1141.6H783.2V1118.56H760.16V1141.6ZM785.76 1141.6H808.8V1118.56H785.76V1141.6ZM811.36 1141.6H834.4V1118.56H811.36V1141.6ZM836.96 1141.6H860V1118.56H836.96V1141.6ZM862.56 1141.6H885.6V1118.56H862.56V1141.6ZM888.16 1141.6H911.2V1118.56H888.16V1141.6ZM911.2 1116V1092.96H888.16V1116H911.2ZM885.6 1116V1092.96H862.56V1116H885.6ZM860 1116V1092.96H836.96V1116H860ZM834.4 1116V1092.96H811.36V1116H834.4ZM808.8 1116V1092.96H785.76V1116H808.8ZM783.2 1116V1092.96H760.16V1116H783.2ZM757.6 1116V1092.96H734.56V1116H757.6ZM732 1116V1092.96H708.96V1116H732ZM708.96 1090.4H732V1067.36H708.96V1090.4ZM734.56 1090.4H757.6V1067.36H734.56V1090.4ZM760.16 1090.4H783.2V1067.36H760.16V1090.4ZM785.76 1090.4H808.8V1067.36H785.76V1090.4ZM811.36 1090.4H834.4V1067.36H811.36V1090.4ZM836.96 1090.4H860V1067.36H836.96V1090.4ZM862.56 1090.4H885.6V1067.36H862.56V1090.4ZM888.16 1090.4H911.2V1067.36H888.16V1090.4ZM911.2 1064.8V1041.76H888.16V1064.8H911.2ZM885.6 1064.8V1041.76H862.56V1064.8H885.6ZM860 1064.8V1041.76H836.96V1064.8H860ZM834.4 1064.8V1041.76H811.36V1064.8H834.4ZM808.8 1064.8V1041.76H785.76V1064.8H808.8ZM783.2 1064.8V1041.76H760.16V1064.8H783.2ZM757.6 1064.8V1041.76H734.56V1064.8H757.6ZM732 1064.8V1041.76H708.96V1064.8H732ZM708.96 1039.2H732V1016.16H708.96V1039.2ZM734.56 1039.2H757.6V1016.16H734.56V1039.2ZM760.16 1039.2H783.2V1016.16H760.16V1039.2ZM785.76 1039.2H808.8V1016.16H785.76V1039.2ZM811.36 1039.2H834.4V1016.16H811.36V1039.2ZM836.96 1039.2H860V1016.16H836.96V1039.2ZM862.56 1039.2H885.6V1016.16H862.56V1039.2ZM888.16 1039.2H911.2V1016.16H888.16V1039.2ZM911.2 1013.6V990.56H888.16V1013.6H911.2ZM885.6 1013.6V990.56H862.56V1013.6H885.6ZM860 1013.6V990.56H836.96V1013.6H860ZM834.4 1013.6V990.56H811.36V1013.6H834.4ZM808.8 1013.6V990.56H785.76V1013.6H808.8ZM783.2 1013.6V990.56H760.16V1013.6H783.2ZM757.6 1013.6V990.56H734.56V1013.6H757.6ZM732 1013.6V990.56H708.96V1013.6H732ZM708.96 988H732V964.96H708.96V988ZM734.56 988H757.6V964.96H734.56V988ZM760.16 988H783.2V964.96H760.16V988ZM785.76 988H808.8V964.96H785.76V988ZM811.36 988H834.4V964.96H811.36V988ZM836.96 988H860V964.96H836.96V988ZM862.56 988H885.6V964.96H862.56V988ZM888.16 988H911.2V964.96H888.16V988Z" fill="#EAF0F7" fill-opacity="0.4"/>
<path fill-rule="evenodd" clip-rule="evenodd" d="M683.36 936.8V924H680.8V936.8H668V939.36H680.8V1180H683.36V939.36H924V936.8H683.36Z" fill="#EAF0F7" fill-opacity="0.4"/>
</g>
<g clip-path="url(#clip25_46_2390)">
<rect width="256" height="256" transform="translate(924 924)" fill="#4CAF50"/>
<path opacity="0.5" fill-rule="evenodd" clip-rule="evenodd" d="M1169.76 1167.2H1180V1169.76H1169.76V1180H1167.2V1169.76H1144.16V1180H1141.6V1169.76H1118.56V1180H1116V1169.76H1092.96V1180H1090.4V1169.76H1067.36V1180H1064.8V1169.76H1041.76V1180H1039.2V1169.76H1016.16V1180H1013.6V1169.76H990.56V1180H988V1169.76H964.96V1180H962.4V1169.76H924V1167.2H962.4V1144.16H924V1141.6H962.4V1118.56H924V1116H962.4V1092.96H924V1090.4H962.4V1067.36H924V1064.8H962.4V1041.76H924V1039.2H962.4V1016.16H924V1013.6H962.4V990.56H924V988H962.4V964.96H924V962.4H962.4V924H964.96V962.4H988V924H990.56V962.4H1013.6V924H1016.16V962.4H1039.2V924H1041.76V962.4H1064.8V924H1067.36V962.4H1090.4V924H1092.96V962.4H1116V924H1118.56V962.4H1141.6V924H1144.16V962.4H1167.2V924H1169.76V962.4H1180V964.96H1169.76V988H1180V990.56H1169.76V1013.6H1180V1016.16H1169.76V1039.2H1180V1041.76H1169.76V1064.8H1180V1067.36H1169.76V1090.4H1180V1092.96H1169.76V1116H1180V1118.56H1169.76V1141.6H1180V1144.16H1169.76V1167.2ZM1167.2 1167.2V1144.16H1144.16V1167.2H1167.2ZM1141.6 1167.2V1144.16H1118.56V1167.2H1141.6ZM1116 1167.2V1144.16H1092.96V1167.2H1116ZM1090.4 1167.2V1144.16H1067.36V1167.2H1090.4ZM1064.8 1167.2V1144.16H1041.76V1167.2H1064.8ZM1039.2 1167.2V1144.16H1016.16V1167.2H1039.2ZM1013.6 1167.2V1144.16H990.56V1167.2H1013.6ZM988 1167.2V1144.16H964.96V1167.2H988ZM964.96 1141.6H988V1118.56H964.96V1141.6ZM990.56 1141.6H1013.6V1118.56H990.56V1141.6ZM1016.16 1141.6H1039.2V1118.56H1016.16V1141.6ZM1041.76 1141.6H1064.8V1118.56H1041.76V1141.6ZM1067.36 1141.6H1090.4V1118.56H1067.36V1141.6ZM1092.96 1141.6H1116V1118.56H1092.96V1141.6ZM1118.56 1141.6H1141.6V1118.56H1118.56V1141.6ZM1144.16 1141.6H1167.2V1118.56H1144.16V1141.6ZM1167.2 1116V1092.96H1144.16V1116H1167.2ZM1141.6 1116V1092.96H1118.56V1116H1141.6ZM1116 1116V1092.96H1092.96V1116H1116ZM1090.4 1116V1092.96H1067.36V1116H1090.4ZM1064.8 1116V1092.96H1041.76V1116H1064.8ZM1039.2 1116V1092.96H1016.16V1116H1039.2ZM1013.6 1116V1092.96H990.56V1116H1013.6ZM988 1116V1092.96H964.96V1116H988ZM964.96 1090.4H988V1067.36H964.96V1090.4ZM990.56 1090.4H1013.6V1067.36H990.56V1090.4ZM1016.16 1090.4H1039.2V1067.36H1016.16V1090.4ZM1041.76 1090.4H1064.8V1067.36H1041.76V1090.4ZM1067.36 1090.4H1090.4V1067.36H1067.36V1090.4ZM1092.96 1090.4H1116V1067.36H1092.96V1090.4ZM1118.56 1090.4H1141.6V1067.36H1118.56V1090.4ZM1144.16 1090.4H1167.2V1067.36H1144.16V1090.4ZM1167.2 1064.8V1041.76H1144.16V1064.8H1167.2ZM1141.6 1064.8V1041.76H1118.56V1064.8H1141.6ZM1116 1064.8V1041.76H1092.96V1064.8H1116ZM1090.4 1064.8V1041.76H1067.36V1064.8H1090.4ZM1064.8 1064.8V1041.76H1041.76V1064.8H1064.8ZM1039.2 1064.8V1041.76H1016.16V1064.8H1039.2ZM1013.6 1064.8V1041.76H990.56V1064.8H1013.6ZM988 1064.8V1041.76H964.96V1064.8H988ZM964.96 1039.2H988V1016.16H964.96V1039.2ZM990.56 1039.2H1013.6V1016.16H990.56V1039.2ZM1016.16 1039.2H1039.2V1016.16H1016.16V1039.2ZM1041.76 1039.2H1064.8V1016.16H1041.76V1039.2ZM1067.36 1039.2H1090.4V1016.16H1067.36V1039.2ZM1092.96 1039.2H1116V1016.16H1092.96V1039.2ZM1118.56 1039.2H1141.6V1016.16H1118.56V1039.2ZM1144.16 1039.2H1167.2V1016.16H1144.16V1039.2ZM1167.2 1013.6V990.56H1144.16V1013.6H1167.2ZM1141.6 1013.6V990.56H1118.56V1013.6H1141.6ZM1116 1013.6V990.56H1092.96V1013.6H1116ZM1090.4 1013.6V990.56H1067.36V1013.6H1090.4ZM1064.8 1013.6V990.56H1041.76V1013.6H1064.8ZM1039.2 1013.6V990.56H1016.16V1013.6H1039.2ZM1013.6 1013.6V990.56H990.56V1013.6H1013.6ZM988 1013.6V990.56H964.96V1013.6H988ZM964.96 988H988V964.96H964.96V988ZM990.56 988H1013.6V964.96H990.56V988ZM1016.16 988H1039.2V964.96H1016.16V988ZM1041.76 988H1064.8V964.96H1041.76V988ZM1067.36 988H1090.4V964.96H1067.36V988ZM1092.96 988H1116V964.96H1092.96V988ZM1118.56 988H1141.6V964.96H1118.56V988ZM1144.16 988H1167.2V964.96H1144.16V988Z" fill="#EAF0F7" fill-opacity="0.4"/>
<path fill-rule="evenodd" clip-rule="evenodd" d="M939.36 936.8V924H936.8V936.8H924V939.36H936.8V1180H939.36V939.36H1180V936.8H939.36Z" fill="#EAF0F7" fill-opacity="0.4"/>
</g>
</g>
<defs>
<clipPath id="clip0_46_2390">
<rect width="1080" height="1080" fill="white"/>
</clipPath>
<clipPath id="clip1_46_2390">
<rect width="256" height="256" fill="white" transform="translate(-100 -100)"/>
</clipPath>
<clipPath id="clip2_46_2390">
<rect width="256" height="256" fill="white" transform="translate(156 -100)"/>
</clipPath>
<clipPath id="clip3_46_2390">
<rect width="256" height="256" fill="white" transform="translate(412 -100)"/>
</clipPath>
<clipPath id="clip4_46_2390">
<rect width="256" height="256" fill="white" transform="translate(668 -100)"/>
</clipPath>
<clipPath id="clip5_46_2390">
<rect width="256" height="256" fill="white" transform="translate(924 -100)"/>
</clipPath>
<clipPath id="clip6_46_2390">
<rect width="256" height="256" fill="white" transform="translate(-100 156)"/>
</clipPath>
<clipPath id="clip7_46_2390">
<rect width="256" height="256" fill="white" transform="translate(156 156)"/>
</clipPath>
<clipPath id="clip8_46_2390">
<rect width="256" height="256" fill="white" transform="translate(412 156)"/>
</clipPath>
<clipPath id="clip9_46_2390">
<rect width="256" height="256" fill="white" transform="translate(668 156)"/>
</clipPath>
<clipPath id="clip10_46_2390">
<rect width="256" height="256" fill="white" transform="translate(924 156)"/>
</clipPath>
<clipPath id="clip11_46_2390">
<rect width="256" height="256" fill="white" transform="translate(-100 412)"/>
</clipPath>
<clipPath id="clip12_46_2390">
<rect width="256" height="256" fill="white" transform="translate(156 412)"/>
</clipPath>
<clipPath id="clip13_46_2390">
<rect width="256" height="256" fill="white" transform="translate(412 412)"/>
</clipPath>
<clipPath id="clip14_46_2390">
<rect width="256" height="256" fill="white" transform="translate(668 412)"/>
</clipPath>
<clipPath id="clip15_46_2390">
<rect width="256" height="256" fill="white" transform="translate(924 412)"/>
</clipPath>
<clipPath id="clip16_46_2390">
<rect width="256" height="256" fill="white" transform="translate(-100 668)"/>
</clipPath>
<clipPath id="clip17_46_2390">
<rect width="256" height="256" fill="white" transform="translate(156 668)"/>
</clipPath>
<clipPath id="clip18_46_2390">
<rect width="256" height="256" fill="white" transform="translate(412 668)"/>
</clipPath>
<clipPath id="clip19_46_2390">
<rect width="256" height="256" fill="white" transform="translate(668 668)"/>
</clipPath>
<clipPath id="clip20_46_2390">
<rect width="256" height="256" fill="white" transform="translate(924 668)"/>
</clipPath>
<clipPath id="clip21_46_2390">
<rect width="256" height="256" fill="white" transform="translate(-100 924)"/>
</clipPath>
<clipPath id="clip22_46_2390">
<rect width="256" height="256" fill="white" transform="translate(156 924)"/>
</clipPath>
<clipPath id="clip23_46_2390">
<rect width="256" height="256" fill="white" transform="translate(412 924)"/>
</clipPath>
<clipPath id="clip24_46_2390">
<rect width="256" height="256" fill="white" transform="translate(668 924)"/>
</clipPath>
<clipPath id="clip25_46_2390">
<rect width="256" height="256" fill="white" transform="translate(924 924)"/>
</clipPath>
</defs>
</svg>
