<svg width="144" height="144" viewBox="0 0 144 144" fill="none" xmlns="http://www.w3.org/2000/svg">
<g clip-path="url(#clip0_38_126)">
<path d="M63.4864 141.089L3.50266 80.8522C-1.16755 76.1623 -1.16755 68.4434 3.50266 63.7535L63.4864 3.51742C68.1567 -1.17248 75.8432 -1.17248 80.5135 3.51742L140.497 63.7535C145.168 68.4434 145.168 76.1623 140.497 80.8522L80.5135 141.089C78.3173 143.294 74.9075 143.983 71.7706 144C68.8533 144.016 65.4993 143.109 63.4864 141.089Z" fill="#4CAF50"/>
<path fill-rule="evenodd" clip-rule="evenodd" d="M112.024 57.2678C108.085 57.2678 104.824 60.3861 104.824 64.1559C104.824 67.1812 106.917 69.8806 109.885 70.7649V83.5639C109.885 90.8246 105.117 94.8274 94.4135 96.4564L90.863 96.9683C85.0243 97.992 80.1112 99.7144 76.2193 102.18V86.3201L76.268 85.3841V81.9864C78.3112 80.2644 81.1815 79.1939 85.1221 78.7285H85.1705C91.9329 77.7511 95.3867 74.6793 95.3867 69.6994V62.2061C98.5006 61.4614 100.885 58.762 100.885 55.5041C100.885 51.6877 97.6243 48.5694 93.6845 48.5694C89.7436 48.5694 86.4845 51.6877 86.4845 55.5506C86.4845 58.8552 88.9651 61.6476 92.1759 62.2992V69.7459C92.1759 73.19 89.9383 74.9586 84.6845 75.7498C81.2788 76.1221 78.5058 76.9599 76.3167 78.2631V52.8561C78.9436 51.3668 80.695 48.6674 80.695 45.5956C80.695 40.9415 76.7545 37.125 71.841 37.125C66.9761 37.125 62.9869 40.8949 62.9869 45.5956C62.9869 48.714 64.7383 51.4134 67.3653 52.8561V69.2441C65.3706 68.3133 62.9869 67.6617 60.1653 67.3359C53.5977 66.405 52.7706 63.7056 52.7706 61.425V56.1659C55.9328 55.4677 58.3653 52.7217 58.3653 49.4172C58.3653 45.6473 55.1058 42.5291 51.1653 42.5291C47.2247 42.5291 43.9653 45.6008 43.9653 49.3707C43.9653 52.6752 46.3977 55.3746 49.5599 56.1193V61.3785C49.5599 66.3585 52.9653 69.3837 59.7274 70.3145C62.9869 70.7799 65.4679 71.4781 67.3653 72.7347V89.433C62.841 86.6869 57.149 84.8722 50.0463 84.0341C39.1004 82.4516 34.2356 78.4955 34.2356 71.0954V68.1632C37.1058 67.2324 39.149 64.6727 39.149 61.6008C39.149 57.831 35.8896 54.7127 31.949 54.7127C28.0085 54.7127 24.749 57.831 24.749 61.6008C24.749 64.6261 26.7922 67.2324 29.6626 68.1632V71.0954C29.6626 76.4943 31.7544 80.7295 35.9383 83.6617C39.1004 85.9421 43.5274 87.4316 49.414 88.2697H49.4626C57.3436 89.2462 63.1815 91.3871 67.414 94.7385V143.426C67.414 143.426 69.2821 144.277 71.914 144.277C74.5457 144.277 76.414 143.441 76.414 143.441V120.388L76.3167 116.665V107.626C80.1112 104.415 85.2684 102.32 92.0791 101.203L95.435 100.738C100.981 99.8539 105.214 98.3644 108.279 96.1762C112.463 93.2445 114.554 89.0089 114.554 83.61V70.7649C117.181 69.7875 119.176 67.2278 119.176 64.2025C119.176 62.3873 118.447 60.6653 117.133 59.3156C115.771 58.0124 113.971 57.2678 112.024 57.2678ZM93.5867 51.1757C91.106 51.1757 89.063 53.1305 89.063 55.5506C89.063 57.8778 91.1544 59.879 93.5867 59.879C96.0684 59.879 98.1114 57.9708 98.1114 55.5506C98.1114 53.1305 96.1168 51.1757 93.5867 51.1757ZM46.5436 49.3707C46.5436 51.7444 48.5869 53.6991 51.0679 53.6991C53.5004 53.6991 55.5922 51.7444 55.5922 49.3707C55.5922 46.9971 53.549 45.0423 51.0679 45.0423C48.5869 45.0423 46.5436 46.9505 46.5436 49.3707ZM27.3274 61.5078C27.3274 63.9279 29.3706 65.8361 31.8517 65.8361C34.2842 65.8361 36.3761 63.8813 36.3761 61.5078C36.3761 59.1342 34.3328 57.1794 31.8517 57.1794C29.3706 57.1794 27.3274 59.0876 27.3274 61.5078ZM65.5653 45.5025C65.5653 48.7604 68.3383 51.4134 71.7437 51.4134C75.149 51.4134 77.922 48.714 77.922 45.456C77.922 42.1981 75.149 39.5452 71.7437 39.5452C68.3383 39.5452 65.5653 42.1981 65.5653 45.5025ZM107.501 64.2025C107.501 66.5762 109.495 68.5308 112.024 68.5308C114.506 68.5308 116.549 66.5761 116.549 64.1559C116.549 63.0389 116.16 61.9685 115.285 61.1307C114.408 60.3395 113.24 59.8741 112.024 59.8741C109.544 59.8741 107.501 61.8289 107.501 64.2025Z" fill="#FAF8F9"/>
</g>
<defs>
<clipPath id="clip0_38_126">
<rect width="144" height="144" fill="white"/>
</clipPath>
</defs>
</svg>
