<svg width="128" height="128" viewBox="0 0 128 128" fill="none" xmlns="http://www.w3.org/2000/svg">
<g clip-path="url(#clip0_38_123)">
<path d="M56.4324 125.412L3.11347 71.8686C-1.03783 67.6998 -1.03783 60.8386 3.11347 56.6698L56.4324 3.1266C60.5838 -1.0422 67.4162 -1.0422 71.5676 3.1266L124.886 56.6698C129.038 60.8386 129.038 67.6998 124.886 71.8686L71.5676 125.412C69.6154 127.372 66.5845 127.985 63.7961 128C61.203 128.014 58.2216 127.208 56.4324 125.412Z" fill="#4CAF50"/>
<path fill-rule="evenodd" clip-rule="evenodd" d="M99.577 50.9047C96.075 50.9047 93.177 53.6765 93.177 57.0275C93.177 59.7166 95.037 62.1161 97.675 62.9021V74.279C97.675 80.733 93.437 84.291 83.923 85.739L80.767 86.194C75.577 87.104 71.2098 88.635 67.7504 90.827V76.729L67.7936 75.897V72.8768C69.6098 71.3461 72.1612 70.3946 75.664 69.9809H75.707C81.718 69.1121 84.788 66.3816 84.788 61.955V55.2943C87.556 54.6324 89.675 52.2329 89.675 49.337C89.675 45.9446 86.777 43.1728 83.275 43.1728C79.772 43.1728 76.875 45.9446 76.875 49.3783C76.875 52.3157 79.08 54.7979 81.934 55.3771V61.9964C81.934 65.0578 79.945 66.6299 75.275 67.3332C72.2477 67.6641 69.7828 68.4088 67.8369 69.5672V46.9832C70.172 45.6594 71.7288 43.2599 71.7288 40.5294C71.7288 36.3924 68.2261 33 63.8585 33C59.5342 33 55.9882 36.351 55.9882 40.5294C55.9882 43.3013 57.545 45.7008 59.8801 46.9832V61.5503C58.1071 60.7229 55.9882 60.1437 53.4801 59.8541C47.6423 59.0267 46.9071 56.6272 46.9071 54.6V49.9252C49.7179 49.3046 51.8801 46.8637 51.8801 43.9264C51.8801 40.5754 48.9828 37.8036 45.4801 37.8036C41.9774 37.8036 39.0801 40.534 39.0801 43.8851C39.0801 46.8224 41.2423 49.2219 44.0531 49.8838V54.5587C44.0531 58.9853 47.0801 61.6744 53.0909 62.5018C55.9882 62.9155 58.1936 63.5361 59.8801 64.6531V79.496C55.8585 77.055 50.799 75.442 44.4855 74.697C34.7558 73.2903 30.4315 69.7738 30.4315 63.1959V60.5895C32.9828 59.7621 34.799 57.4868 34.799 54.7563C34.799 51.4053 31.9017 48.6335 28.399 48.6335C24.8963 48.6335 21.999 51.4053 21.999 54.7563C21.999 57.4454 23.8152 59.7621 26.3666 60.5895V63.1959C26.3666 67.9949 28.226 71.7596 31.945 74.366C34.7558 76.393 38.6909 77.717 43.9234 78.462H43.9666C50.972 79.33 56.1612 81.233 59.9234 84.212V127.49C59.9234 127.49 61.584 128.246 63.9234 128.246C66.2627 128.246 67.9234 127.503 67.9234 127.503V107.012L67.8369 103.702V95.668C71.2098 92.813 75.794 90.951 81.848 89.958L84.831 89.545C89.761 88.759 93.523 87.435 96.248 85.49C99.967 82.884 101.826 79.119 101.826 74.32V62.9021C104.161 62.0333 105.934 59.758 105.934 57.0689C105.934 55.4554 105.286 53.9247 104.118 52.725C102.907 51.5666 101.307 50.9047 99.577 50.9047ZM83.188 45.4895C80.983 45.4895 79.167 47.2271 79.167 49.3783C79.167 51.4469 81.026 53.2258 83.188 53.2258C85.394 53.2258 87.21 51.5296 87.21 49.3783C87.21 47.2271 85.437 45.4895 83.188 45.4895ZM41.372 43.8851C41.372 45.995 43.1882 47.7325 45.3936 47.7325C47.5558 47.7325 49.4152 45.995 49.4152 43.8851C49.4152 41.7752 47.599 40.0376 45.3936 40.0376C43.1882 40.0376 41.372 41.7338 41.372 43.8851ZM24.2909 54.6736C24.2909 56.8248 26.1071 58.521 28.3125 58.521C30.4747 58.521 32.3342 56.7834 32.3342 54.6736C32.3342 52.5637 30.5179 50.8261 28.3125 50.8261C26.1071 50.8261 24.2909 52.5223 24.2909 54.6736ZM58.2801 40.4467C58.2801 43.3426 60.745 45.7008 63.772 45.7008C66.799 45.7008 69.2639 43.3013 69.2639 40.4053C69.2639 37.5094 66.799 35.1513 63.772 35.1513C60.745 35.1513 58.2801 37.5094 58.2801 40.4467ZM95.556 57.0689C95.556 59.1788 97.329 60.9163 99.577 60.9163C101.783 60.9163 103.599 59.1788 103.599 57.0275C103.599 56.0346 103.253 55.0831 102.475 54.3384C101.696 53.6351 100.658 53.2214 99.577 53.2214C97.372 53.2214 95.556 54.959 95.556 57.0689Z" fill="#FAF8F9"/>
</g>
<defs>
<clipPath id="clip0_38_123">
<rect width="128" height="128" fill="white"/>
</clipPath>
</defs>
</svg>
