<svg width="256" height="256" viewBox="0 0 256 256" fill="none" xmlns="http://www.w3.org/2000/svg">
<g clip-path="url(#clip0_38_129)">
<path d="M112.865 250.824L6.22695 143.737C-2.07565 135.4 -2.07565 121.677 6.22695 113.34L112.865 6.2532C121.168 -2.0844 134.832 -2.0844 143.135 6.2532L249.772 113.34C258.076 121.677 258.076 135.4 249.772 143.737L143.135 250.824C139.231 254.744 133.169 255.97 127.592 256C122.406 256.028 116.443 254.416 112.865 250.824Z" fill="#4CAF50"/>
<path fill-rule="evenodd" clip-rule="evenodd" d="M199.154 101.809C192.15 101.809 186.354 107.353 186.354 114.055C186.354 119.433 190.074 124.232 195.35 125.804V148.558C195.35 161.466 186.874 168.582 167.846 171.478L161.534 172.388C151.154 174.208 142.42 177.27 135.501 181.654V153.458L135.587 151.794V145.754C139.22 142.692 144.322 140.789 151.328 139.962H151.414C163.436 138.224 169.576 132.763 169.576 123.91V110.589C175.112 109.265 179.35 104.466 179.35 98.674C179.35 91.8892 173.554 86.3456 166.55 86.3456C159.544 86.3456 153.75 91.8892 153.75 98.7566C153.75 104.631 158.16 109.596 163.868 110.754V123.993C163.868 130.116 159.89 133.26 150.55 134.666C144.495 135.328 139.566 136.818 135.674 139.134V93.9664C140.344 91.3188 143.458 86.5198 143.458 81.0588C143.458 72.7848 136.452 66 127.717 66C119.068 66 111.976 72.702 111.976 81.0588C111.976 86.6026 115.09 91.4016 119.76 93.9664V123.101C116.214 121.446 111.976 120.287 106.96 119.708C95.2847 118.053 93.8142 113.254 93.8142 109.2V99.8504C99.4358 98.6092 103.76 93.7274 103.76 87.8528C103.76 81.1508 97.9657 75.6072 90.9603 75.6072C83.9549 75.6072 78.1602 81.068 78.1602 87.7702C78.1602 93.6448 82.4846 98.4438 88.1062 99.7676V109.117C88.1062 117.971 94.1602 123.349 106.182 125.004C111.976 125.831 116.387 127.072 119.76 129.306V158.992C111.717 154.11 101.598 150.884 88.971 149.394C69.5116 146.581 60.863 139.548 60.863 126.392V121.179C65.9656 119.524 69.598 114.974 69.598 109.513C69.598 102.811 63.8034 97.267 56.798 97.267C49.7926 97.267 43.998 102.811 43.998 109.513C43.998 114.891 47.6304 119.524 52.7332 121.179V126.392C52.7332 135.99 56.452 143.519 63.89 148.732C69.5116 152.786 77.3818 155.434 87.8468 156.924H87.9332C101.944 158.66 112.322 162.466 119.847 168.424V254.98C119.847 254.98 123.168 256.492 127.847 256.492C132.525 256.492 135.847 255.006 135.847 255.006V214.024L135.674 207.404V191.336C142.42 185.626 151.588 181.902 163.696 179.916L169.662 179.09C179.522 177.518 187.046 174.87 192.496 170.98C199.934 165.768 203.652 158.238 203.652 148.64V125.804C208.322 124.067 211.868 119.516 211.868 114.138C211.868 110.911 210.572 107.849 208.236 105.45C205.814 103.133 202.614 101.809 199.154 101.809ZM166.376 90.979C161.966 90.979 158.334 94.4542 158.334 98.7566C158.334 102.894 162.052 106.452 166.376 106.452C170.788 106.452 174.42 103.059 174.42 98.7566C174.42 94.4542 170.874 90.979 166.376 90.979ZM82.744 87.7702C82.744 91.99 86.3764 95.465 90.7872 95.465C95.1116 95.465 98.8304 91.99 98.8304 87.7702C98.8304 83.5504 95.198 80.0752 90.7872 80.0752C86.3764 80.0752 82.744 83.4676 82.744 87.7702ZM48.5818 109.347C48.5818 113.65 52.2142 117.042 56.625 117.042C60.9494 117.042 64.6684 113.567 64.6684 109.347C64.6684 105.127 61.0358 101.652 56.625 101.652C52.2142 101.652 48.5818 105.045 48.5818 109.347ZM116.56 80.8934C116.56 86.6852 121.49 91.4016 127.544 91.4016C133.598 91.4016 138.528 86.6026 138.528 80.8106C138.528 75.0188 133.598 70.3026 127.544 70.3026C121.49 70.3026 116.56 75.0188 116.56 80.8934ZM191.112 114.138C191.112 118.358 194.658 121.833 199.154 121.833C203.566 121.833 207.198 118.358 207.198 114.055C207.198 112.069 206.506 110.166 204.95 108.677C203.392 107.27 201.316 106.443 199.154 106.443C194.744 106.443 191.112 109.918 191.112 114.138Z" fill="#FAF8F9"/>
</g>
<defs>
<clipPath id="clip0_38_129">
<rect width="256" height="256" fill="white"/>
</clipPath>
</defs>
</svg>
