<svg width="32" height="32" viewBox="0 0 32 32" fill="none" xmlns="http://www.w3.org/2000/svg">
<g clip-path="url(#clip0_38_117)">
<path d="M14.1081 31.353L0.778369 17.9671C-0.259456 16.9249 -0.259456 15.2096 0.778369 14.1674L14.1081 0.78165C15.1459 -0.26055 16.854 -0.26055 17.8919 0.78165L31.2215 14.1674C32.2595 15.2096 32.2595 16.9249 31.2215 17.9671L17.8919 31.353C17.4038 31.843 16.6461 31.9963 15.949 32C15.3007 32.0035 14.5554 31.802 14.1081 31.353Z" fill="#4CAF50"/>
<path fill-rule="evenodd" clip-rule="evenodd" d="M24.8945 12.7262C24.019 12.7262 23.2945 13.4191 23.2945 14.2569C23.2945 14.9291 23.7595 15.529 24.419 15.7255V18.5697C24.419 20.1832 23.3595 21.0727 20.981 21.4347L20.192 21.5485C18.8945 21.776 17.8027 22.1588 16.9378 22.7068V19.1822L16.9487 18.9743V18.2192C17.4027 17.8365 18.0406 17.5987 18.9163 17.4952H18.927C20.4298 17.278 21.1973 16.5954 21.1973 15.4888V13.8236C21.8893 13.6581 22.419 13.0582 22.419 12.3342C22.419 11.4861 21.6945 10.7932 20.819 10.7932C19.9433 10.7932 19.219 11.4862 19.219 12.3446C19.219 13.0789 19.7702 13.6995 20.4837 13.8443V15.4991C20.4837 16.2644 19.9865 16.6575 18.819 16.8333C18.0622 16.916 17.4459 17.1022 16.9595 17.3918V11.7458C17.5432 11.4149 17.9324 10.815 17.9324 10.1324C17.9324 9.0981 17.0568 8.25 15.9649 8.25C14.8838 8.25 13.9973 9.08775 13.9973 10.1324C13.9973 10.8253 14.3865 11.4252 14.9703 11.7458V15.3876C14.527 15.1807 13.9973 15.0359 13.3703 14.9635C11.9108 14.7567 11.727 14.1568 11.727 13.65V12.4813C12.4297 12.3262 12.9703 11.7159 12.9703 10.9816C12.9703 10.1438 12.246 9.4509 11.3703 9.4509C10.4946 9.4509 9.77028 10.1335 9.77028 10.9713C9.77028 11.7056 10.3108 12.3055 11.0135 12.4709V13.6397C11.0135 14.7463 11.7703 15.4186 13.273 15.6255C13.9973 15.7289 14.5486 15.884 14.9703 16.1633V19.874C13.9649 19.2638 12.7 18.8605 11.1216 18.6742C8.6892 18.3226 7.60812 17.4434 7.60812 15.799V15.1474C8.24595 14.9405 8.7 14.3717 8.7 13.6891C8.7 12.8513 7.97567 12.1584 7.1 12.1584C6.22432 12.1584 5.5 12.8513 5.5 13.6891C5.5 14.3614 5.95405 14.9405 6.5919 15.1474V15.799C6.5919 16.9987 7.05675 17.9399 7.9865 18.5915C8.6892 19.0982 9.67298 19.4292 10.9811 19.6155H10.9919C12.7432 19.8325 14.0406 20.3082 14.9811 21.053V31.8725C14.9811 31.8725 15.3963 32.0615 15.9811 32.0615C16.5659 32.0615 16.9811 31.8758 16.9811 31.8758V26.753L16.9595 25.9255V23.917C17.8027 23.2032 18.9487 22.7378 20.4622 22.4895L21.208 22.3862C22.4405 22.1897 23.381 21.8587 24.0623 21.3725C24.992 20.721 25.4567 19.7797 25.4567 18.58V15.7255C26.0405 15.5083 26.4838 14.9395 26.4838 14.2672C26.4838 13.8639 26.3217 13.4812 26.0297 13.1812C25.727 12.8916 25.327 12.7262 24.8945 12.7262ZM20.7973 11.3724C20.246 11.3724 19.792 11.8068 19.792 12.3446C19.792 12.8617 20.2568 13.3064 20.7973 13.3064C21.3488 13.3064 21.8027 12.8824 21.8027 12.3446C21.8027 11.8068 21.3595 11.3724 20.7973 11.3724ZM10.3433 10.9713C10.3433 11.4988 10.7973 11.9331 11.3486 11.9331C11.8892 11.9331 12.354 11.4988 12.354 10.9713C12.354 10.4438 11.9 10.0094 11.3486 10.0094C10.7973 10.0094 10.3433 10.4335 10.3433 10.9713ZM6.07298 13.6684C6.07298 14.2062 6.52702 14.6303 7.07837 14.6303C7.61892 14.6303 8.0838 14.1958 8.0838 13.6684C8.0838 13.1409 7.62972 12.7065 7.07837 12.7065C6.52702 12.7065 6.07298 13.1306 6.07298 13.6684ZM14.5703 10.1117C14.5703 10.8357 15.1865 11.4252 15.9433 11.4252C16.7 11.4252 17.3162 10.8253 17.3162 10.1013C17.3162 9.37735 16.7 8.78782 15.9433 8.78782C15.1865 8.78782 14.5703 9.37735 14.5703 10.1117ZM23.8892 14.2672C23.8892 14.7947 24.3325 15.2291 24.8945 15.2291C25.446 15.2291 25.9 14.7947 25.9 14.2569C25.9 14.0086 25.8135 13.7708 25.619 13.5846C25.4243 13.4088 25.1648 13.3053 24.8945 13.3053C24.3433 13.3053 23.8892 13.7398 23.8892 14.2672Z" fill="#FAF8F9"/>
</g>
<defs>
<clipPath id="clip0_38_117">
<rect width="32" height="32" fill="white"/>
</clipPath>
</defs>
</svg>
