<svg width="512" height="512" viewBox="0 0 512 512" fill="none" xmlns="http://www.w3.org/2000/svg">
<g clip-path="url(#clip0_38_132)">
<path d="M225.729 501.648L12.4539 287.474C-4.1513 270.799 -4.1513 243.354 12.4539 226.679L225.729 12.5064C242.335 -4.1688 269.665 -4.1688 286.27 12.5064L499.544 226.679C516.152 243.354 516.152 270.799 499.544 287.474L286.27 501.648C278.461 509.488 266.338 511.94 255.184 512C244.812 512.056 232.886 508.832 225.729 501.648Z" fill="#4CAF50"/>
<path fill-rule="evenodd" clip-rule="evenodd" d="M398.308 203.619C384.3 203.619 372.708 214.706 372.708 228.11C372.708 238.866 380.148 248.464 390.7 251.608V297.116C390.7 322.932 373.748 337.164 335.692 342.956L323.068 344.776C302.308 348.416 284.839 354.54 271.002 363.308V306.916L271.174 303.588V291.507C278.439 285.384 288.645 281.578 302.656 279.924H302.828C326.872 276.448 339.152 265.526 339.152 247.82V221.177C350.224 218.53 358.7 208.932 358.7 197.348C358.7 183.778 347.108 172.691 333.1 172.691C319.088 172.691 307.5 183.778 307.5 197.513C307.5 209.263 316.32 219.192 327.736 221.508V247.986C327.736 260.231 319.78 266.52 301.1 269.333C288.991 270.656 279.131 273.635 271.348 278.269V187.933C280.688 182.638 286.915 173.04 286.915 162.118C286.915 145.57 272.904 132 255.434 132C238.137 132 223.953 145.404 223.953 162.118C223.953 173.205 230.18 182.803 239.52 187.933V246.201C232.428 242.892 223.953 240.575 213.921 239.416C190.569 236.107 187.628 226.509 187.628 218.4V199.701C198.872 197.218 207.52 187.455 207.52 175.706C207.52 162.302 195.931 151.214 181.921 151.214C167.91 151.214 156.32 162.136 156.32 175.54C156.32 187.29 164.969 196.888 176.212 199.535V218.235C176.212 235.941 188.32 246.698 212.364 250.007C223.953 251.662 232.774 254.144 239.52 258.612V317.984C223.434 308.22 203.196 301.768 177.942 298.788C139.023 293.161 121.726 279.095 121.726 252.784V242.358C131.931 239.048 139.196 229.947 139.196 219.025C139.196 205.621 127.607 194.534 113.596 194.534C99.5853 194.534 87.9961 205.621 87.9961 219.025C87.9961 229.782 95.2609 239.048 105.466 242.358V252.784C105.466 271.98 112.904 287.038 127.78 297.464C139.023 305.572 154.764 310.868 175.694 313.848H175.866C203.888 317.32 224.645 324.932 239.694 336.848V509.96C239.694 509.96 246.336 512.984 255.694 512.984C265.051 512.984 271.694 510.012 271.694 510.012V428.048L271.348 414.808V382.672C284.839 371.252 303.176 363.804 327.392 359.832L339.324 358.18C359.044 355.036 374.092 349.74 384.992 341.96C399.868 331.536 407.304 316.476 407.304 297.28V251.608C416.644 248.133 423.736 239.032 423.736 228.276C423.736 221.822 421.144 215.699 416.472 210.9C411.628 206.266 405.228 203.619 398.308 203.619ZM332.752 181.958C323.932 181.958 316.668 188.908 316.668 197.513C316.668 205.788 324.104 212.903 332.752 212.903C341.576 212.903 348.84 206.118 348.84 197.513C348.84 188.908 341.748 181.958 332.752 181.958ZM165.488 175.54C165.488 183.98 172.753 190.93 181.574 190.93C190.223 190.93 197.661 183.98 197.661 175.54C197.661 167.101 190.396 160.15 181.574 160.15C172.753 160.15 165.488 166.935 165.488 175.54ZM97.1637 218.694C97.1637 227.299 104.428 234.084 113.25 234.084C121.899 234.084 129.337 227.134 129.337 218.694C129.337 210.255 122.072 203.304 113.25 203.304C104.428 203.304 97.1637 210.089 97.1637 218.694ZM233.12 161.787C233.12 173.37 242.98 182.803 255.088 182.803C267.196 182.803 277.056 173.205 277.056 161.621C277.056 150.038 267.196 140.605 255.088 140.605C242.98 140.605 233.12 150.038 233.12 161.787ZM382.224 228.276C382.224 236.715 389.316 243.665 398.308 243.665C407.132 243.665 414.396 236.715 414.396 228.11C414.396 224.138 413.012 220.332 409.9 217.354C406.784 214.54 402.632 212.886 398.308 212.886C389.488 212.886 382.224 219.836 382.224 228.276Z" fill="#FAF8F9"/>
</g>
<defs>
<clipPath id="clip0_38_132">
<rect width="512" height="512" fill="white"/>
</clipPath>
</defs>
</svg>
