<svg width="64" height="64" viewBox="0 0 64 64" fill="none" xmlns="http://www.w3.org/2000/svg">
<g clip-path="url(#clip0_38_120)">
<path d="M28.2162 62.706L1.55674 35.9343C-0.518913 33.8499 -0.518913 30.4193 1.55674 28.3349L28.2162 1.5633C30.2919 -0.5211 33.7081 -0.5211 35.7838 1.5633L62.443 28.3349C64.519 30.4193 64.519 33.8499 62.443 35.9343L35.7838 62.706C34.8077 63.686 33.2922 63.9925 31.898 64C30.6015 64.007 29.1108 63.604 28.2162 62.706Z" fill="#4CAF50"/>
<path fill-rule="evenodd" clip-rule="evenodd" d="M49.789 25.4524C48.038 25.4524 46.589 26.8382 46.589 28.5137C46.589 29.8583 47.519 31.058 48.838 31.451V37.1395C48.838 40.3665 46.719 42.1455 41.962 42.8695L40.384 43.097C37.789 43.552 35.6054 44.3175 33.8757 45.4135V38.3645L33.8973 37.9485V36.4384C34.8054 35.6731 36.0811 35.1973 37.8325 34.9905H37.854C40.8595 34.5561 42.3945 33.1908 42.3945 30.9775V27.6471C43.7785 27.3162 44.838 26.1164 44.838 24.6685C44.838 22.9723 43.389 21.5864 41.638 21.5864C39.8865 21.5864 38.438 22.9723 38.438 24.6892C38.438 26.1579 39.5405 27.3989 40.9675 27.6885V30.9982C40.9675 32.5289 39.973 33.3149 37.638 33.6666C36.1244 33.832 34.8919 34.2044 33.9189 34.7836V23.4916C35.0865 22.8297 35.8649 21.63 35.8649 20.2647C35.8649 18.1962 34.1135 16.5 31.9297 16.5C29.7676 16.5 27.9946 18.1755 27.9946 20.2647C27.9946 21.6507 28.773 22.8504 29.9405 23.4916V30.7752C29.054 30.3615 27.9946 30.0719 26.7406 29.9271C23.8217 29.5134 23.454 28.3136 23.454 27.3V24.9626C24.8594 24.6523 25.9405 23.4318 25.9405 21.9632C25.9405 20.2877 24.4919 18.9018 22.7406 18.9018C20.9892 18.9018 19.5406 20.267 19.5406 21.9426C19.5406 23.4112 20.6216 24.6109 22.0271 24.9419V27.2794C22.0271 29.4927 23.5405 30.8372 26.5459 31.2509C27.9946 31.4578 29.0973 31.768 29.9405 32.3265V39.748C27.9297 38.5275 25.4 37.721 22.2432 37.3485C17.3784 36.6451 15.2162 34.8869 15.2162 31.5979V30.2948C16.4919 29.8811 17.4 28.7434 17.4 27.3782C17.4 25.7027 15.9513 24.3167 14.2 24.3167C12.4486 24.3167 11 25.7027 11 27.3782C11 28.7227 11.9081 29.8811 13.1838 30.2948V31.5979C13.1838 33.9974 14.1135 35.8798 15.973 37.183C17.3784 38.1965 19.346 38.8585 21.9622 39.231H21.9838C25.4865 39.665 28.0811 40.6165 29.9622 42.106V63.745C29.9622 63.745 30.7925 64.123 31.9622 64.123C33.1319 64.123 33.9622 63.7515 33.9622 63.7515V53.506L33.9189 51.851V47.834C35.6054 46.4065 37.8975 45.4755 40.9245 44.979L42.416 44.7725C44.881 44.3795 46.762 43.7175 48.1245 42.745C49.984 41.442 50.9135 39.5595 50.9135 37.16V31.451C52.081 31.0166 52.9675 29.879 52.9675 28.5345C52.9675 27.7277 52.6435 26.9623 52.0595 26.3625C51.454 25.7833 50.654 25.4524 49.789 25.4524ZM41.5945 22.7448C40.492 22.7448 39.584 23.6136 39.584 24.6892C39.584 25.7235 40.5135 26.6129 41.5945 26.6129C42.6975 26.6129 43.6055 25.7648 43.6055 24.6892C43.6055 23.6136 42.719 22.7448 41.5945 22.7448ZM20.6865 21.9426C20.6865 22.9975 21.5946 23.8662 22.6973 23.8662C23.7784 23.8662 24.7081 22.9975 24.7081 21.9426C24.7081 20.8876 23.8 20.0188 22.6973 20.0188C21.5946 20.0188 20.6865 20.8669 20.6865 21.9426ZM12.146 27.3368C12.146 28.4124 13.054 29.2605 14.1567 29.2605C15.2378 29.2605 16.1676 28.3917 16.1676 27.3368C16.1676 26.2818 15.2594 25.4131 14.1567 25.4131C13.054 25.4131 12.146 26.2611 12.146 27.3368ZM29.1405 20.2234C29.1405 21.6713 30.373 22.8504 31.8865 22.8504C33.4 22.8504 34.6325 21.6506 34.6325 20.2026C34.6325 18.7547 33.4 17.5756 31.8865 17.5756C30.373 17.5756 29.1405 18.7547 29.1405 20.2234ZM47.7785 28.5345C47.7785 29.5894 48.665 30.4581 49.789 30.4581C50.892 30.4581 51.8 29.5894 51.8 28.5137C51.8 28.0173 51.627 27.5416 51.238 27.1692C50.8485 26.8176 50.3295 26.6107 49.789 26.6107C48.6865 26.6107 47.7785 27.4795 47.7785 28.5345Z" fill="#FAF8F9"/>
</g>
<defs>
<clipPath id="clip0_38_120">
<rect width="64" height="64" fill="white"/>
</clipPath>
</defs>
</svg>
